<svg width="77" height="77" viewBox="0 0 77 77" fill="none" xmlns="http://www.w3.org/2000/svg">
<path fill-rule="evenodd" clip-rule="evenodd" d="M38.3852 0C17.1592 0 0 17.6458 0 39.4761C0 56.9262 10.9945 71.6973 26.2467 76.9253C28.1537 77.3183 28.8522 76.0759 28.8522 75.0308C28.8522 74.1156 28.7893 70.9786 28.7893 67.7102C18.1115 70.0635 15.8879 63.0043 15.8879 63.0043C14.1719 58.4293 11.6293 57.2534 11.6293 57.2534C8.13449 54.8351 11.8839 54.8351 11.8839 54.8351C15.7606 55.0966 17.7948 58.8873 17.7948 58.8873C21.226 64.8997 26.7551 63.2009 28.9795 62.1549C29.2969 59.6059 30.3144 57.8413 31.3947 56.8612C22.8784 55.946 13.9181 52.5476 13.9181 37.3842C13.9181 33.0706 15.4424 29.5415 17.8577 26.7968C17.4766 25.8166 16.1417 21.7637 18.2395 16.3392C18.2395 16.3392 21.4806 15.2933 28.7885 20.3913C31.9173 19.5272 35.144 19.0876 38.3852 19.0839C41.6263 19.0839 44.9302 19.5419 47.9811 20.3913C55.2898 15.2933 58.5309 16.3392 58.5309 16.3392C60.6288 21.7637 59.293 25.8166 58.912 26.7968C61.3909 29.5415 62.8523 33.0706 62.8523 37.3842C62.8523 52.5476 53.8921 55.8803 45.3121 56.8612C46.7106 58.1028 47.9175 60.4553 47.9175 64.181C47.9175 69.4747 47.8546 73.7234 47.8546 75.03C47.8546 76.0759 48.5539 77.3183 50.4601 76.9261C65.7123 71.6965 76.7068 56.9262 76.7068 39.4761C76.7697 17.6458 59.5476 0 38.3852 0Z" fill="#F5BD2A"/>
</svg>
