<svg width="852" height="651" viewBox="0 0 852 651" fill="none" xmlns="http://www.w3.org/2000/svg">
<path d="M683.88 570.296C685.183 577.067 691.699 564.045 700.169 542.557C699.519 547.503 697.824 548.273 697.174 554.928C696.782 559.082 695.608 570.153 701.082 573.159C704.994 575.361 710.468 572.509 712.551 571.324C716.463 573.928 727.411 580.57 742.53 580.063C752.825 579.671 760.645 576.155 764.815 573.812C766.381 575.232 775.114 582.783 787.754 581.741C803.656 580.57 811.738 566.895 812.259 565.737C819.037 568.719 826.986 567.807 832.852 563.249C841.714 556.477 840.931 545.668 840.931 545.018C839.368 542.673 834.544 536.293 825.682 533.297C812.78 529 801.702 535.51 800.006 536.551C796.878 535.132 790.624 532.79 782.542 533.178C774.593 533.556 768.594 536.293 765.598 537.855C762.991 536.694 758.037 534.744 751.654 534.989C747.221 535.132 743.572 536.293 741.226 537.205C744.355 534.339 748.784 529.532 751.521 522.617C757.258 507.641 748.917 498.667 752.954 483.807C756.604 470.278 765.207 472.348 771.331 458.295C779.413 439.673 775.243 410.371 757.778 401.762C754.912 400.342 751.913 399.549 749.046 399.3L761.949 356.065C762.861 350.972 764.557 338.093 757.258 325.721C755.692 323.117 748.525 310.991 740.314 311.787C733.536 312.437 729.103 321.554 724.674 333.534C712.292 366.601 709.685 393.833 709.685 393.833C705.514 437.317 696.52 434.321 688.571 484.604C685.442 504.53 676.839 534.339 683.88 570.296ZM167.884 572.25C166.58 579.021 160.064 565.996 151.59 544.511C152.244 549.457 153.939 550.227 154.59 556.882C154.981 561.036 156.152 572.107 150.678 575.113C146.77 577.316 141.296 574.463 139.209 573.278C135.3 575.882 124.349 582.524 109.226 582.017C98.9314 581.625 91.1115 578.109 86.9412 575.767C85.3786 577.186 76.6429 584.737 63.999 583.695C48.1005 582.524 40.0219 568.849 39.4977 567.691C32.7195 570.674 24.7737 569.761 18.908 565.203C10.0463 558.431 10.8225 547.622 10.8225 546.972C12.392 544.627 17.2126 538.247 26.0776 535.251C38.9768 530.951 50.0547 537.464 51.75 538.506C54.8753 537.086 61.1325 534.744 69.2145 535.132C77.1672 535.51 83.1589 538.247 86.1582 539.809C88.7625 538.649 93.7193 536.694 100.103 536.943C104.538 537.086 108.188 538.247 110.53 539.156C107.402 536.293 102.976 531.486 100.235 524.571C94.5023 509.595 102.84 500.622 98.7986 485.761C95.1525 472.232 86.5497 474.302 80.4252 460.249C72.3466 441.627 76.5135 412.325 93.978 403.716C96.8445 402.296 99.8438 401.503 102.71 401.254L89.8077 358.019C88.8953 352.926 87.1999 340.047 94.5023 327.675C96.0649 325.068 103.235 312.945 111.446 313.738C118.221 314.392 122.65 323.505 127.086 335.488C139.471 368.555 142.079 395.784 142.079 395.784C146.249 439.268 155.24 436.275 163.193 486.558C166.451 506.48 175.053 536.436 167.884 572.25Z" fill="#DAA826"/>
<mask id="mask0_206_2128" style="mask-type:luminance" maskUnits="userSpaceOnUse" x="0" y="304" width="852" height="277">
<path d="M1.14441e-05 304.74H851.62V580.134H1.14441e-05V304.74Z" fill="white"/>
</mask>
<g mask="url(#mask0_206_2128)">
<path d="M841.976 558.431C840.151 559.732 838.193 560.787 836.11 561.441L820.6 543.714C830.374 542.295 840.151 540.994 849.796 539.809C851.358 546.06 848.1 553.873 841.976 558.431ZM821.383 560.386C821.25 560.253 820.991 560.253 820.862 560.386C820.729 560.529 820.47 560.644 820.47 560.787C819.425 563.249 817.992 565.465 816.3 567.416C814.996 568.992 813.43 570.296 811.867 571.324L788.275 548.664C798.444 546.972 808.609 545.553 818.904 543.976L834.544 561.829C830.244 562.741 825.553 562.34 821.383 560.386ZM792.708 576.155C783.192 575.62 776.285 570.946 773.027 568.199C772.897 568.069 772.768 568.069 772.506 568.069C772.377 568.069 772.244 568.069 772.114 568.199C770.811 568.992 769.119 570.023 766.902 570.946L753.087 554.785C759.733 553.624 766.511 552.324 773.16 551.269C777.459 550.486 781.892 549.835 786.192 549.066L810.305 572.25C803.394 576.274 795.445 576.274 792.708 576.155ZM748.263 573.669C742.922 573.016 737.968 571.324 733.144 568.342C731.452 567.691 726.108 565.346 724.153 560.253C733.274 558.431 742.398 556.62 751.521 554.928L765.469 571.324C761.037 573.159 755.041 574.578 748.263 573.669ZM711.51 570.296L727.279 515.975L762.732 500.479C763.123 505.18 762.861 510.116 760.516 515.975C758.17 522.11 754.129 527.697 748.784 532.647C741.618 533.831 733.407 536.694 727.67 543.714C725.587 546.203 720.242 552.715 722.458 559.994C723.108 562.207 724.283 563.902 725.716 565.346C721.284 569.904 715.68 571.324 711.51 570.296ZM710.206 569.761C709.685 569.502 709.035 569.254 708.643 568.849C705.514 566.507 704.994 562.091 704.861 560.644C704.211 555.32 706.035 551.139 707.598 547.881C707.86 547.231 708.122 546.581 708.381 546.06C710.989 539.952 709.947 535.51 708.643 530.042C707.731 526.134 706.686 521.838 706.556 515.597C706.427 511.951 706.686 509.347 707.21 506.743L723.762 523.268L710.206 569.761ZM704.473 551.269L697.824 565.737C696.52 567.3 694.304 569.111 693.003 569.111C697.953 526.669 705.514 484.069 715.421 442.396C725.325 401.111 737.836 359.973 752.566 320.108C752.696 319.716 752.566 319.325 752.175 319.209C751.783 319.066 751.392 319.209 751.263 319.6C736.535 359.438 724.021 400.72 714.117 442.134C704.211 483.3 696.782 525.484 691.829 567.691C691.699 567.038 691.57 565.996 691.699 564.433C694.045 504.254 695.349 474.04 701.736 450.209C703.039 445.273 703.952 442.134 705.123 438.372C706.556 433.409 708.252 427.952 711.247 416.738C713.205 409.459 714.897 403.716 716.201 399.157C718.938 389.652 720.633 383.919 721.675 376.627C722.587 369.597 733.277 315.301 746.571 307.607C748.134 306.694 749.696 306.575 751.263 307.229C766.381 313.35 770.16 334.838 766.249 347.455C762.732 358.931 756.345 387.177 755.304 391.487C742.789 391.994 729.886 400.72 724.674 410.763C722.329 415.175 722.196 418.304 721.804 424.697C721.546 429.906 721.154 437.184 719.329 448.906C718.155 456.198 717.113 461.277 715.809 467.79C712.422 484.199 709.685 492.924 707.989 498.787C705.906 505.439 704.861 508.697 705.123 515.86C705.385 522.11 706.427 526.784 707.339 530.573C708.643 536.044 709.555 540.068 707.077 545.668C706.818 546.203 706.556 546.853 706.297 547.503C705.644 548.416 704.994 549.835 704.473 551.269ZM764.036 393.949C780.717 399.549 787.363 425.204 782.021 443.581C779.805 451.132 776.285 454.506 772.506 458.152C770.681 459.977 768.856 461.669 767.161 464.014L741.485 466.37L757.649 410.763C757.779 410.371 757.516 409.966 757.128 409.837C756.737 409.721 756.345 409.966 756.216 410.371L750.217 430.947L727.932 407.883C735.623 397.595 751.521 389.782 764.036 393.949ZM716.334 472.086C716.592 470.786 716.854 469.366 717.246 467.919C718.546 461.41 719.592 456.344 720.763 449.035C722.587 437.184 722.979 429.906 723.241 424.697C723.629 418.576 723.762 415.437 725.845 411.413C726.237 410.62 726.758 409.837 727.279 409.067L749.959 432.51L740.052 467.02L733.665 489.278L716.334 472.086ZM733.015 490.854L724.153 521.719L707.469 505.037C707.86 503.226 708.51 501.391 709.293 499.045C710.859 493.966 713.205 486.674 715.942 473.781L733.015 490.854ZM762.34 474.694C760.386 482.388 761.166 488.509 761.949 494.371C762.211 495.92 762.34 497.367 762.47 498.787L727.67 514.021L741.097 467.79L766.119 465.458C764.686 467.919 763.382 470.929 762.34 474.694ZM731.061 557.39C728.583 557.924 726.237 558.302 723.762 558.833C722.329 552.569 727.02 546.71 728.845 544.511C733.536 538.897 740.052 536.044 746.18 534.597L731.061 557.39ZM760.645 533.035C765.728 533.035 770.943 533.556 775.893 534.859C776.155 534.859 776.417 534.859 776.547 534.74C777.851 533.44 780.067 531.734 783.063 530.301L769.639 550.108C763.644 551.139 757.516 552.181 751.392 553.366H751.263C745.005 554.523 738.881 555.698 732.753 556.882L747.872 534.09C753.346 533.178 758.041 533.178 760.645 533.035ZM785.671 529.532C787.363 528.997 789.058 528.623 791.145 528.347C797.923 527.826 803.135 530.301 805.743 531.877C806.002 531.993 806.264 531.993 806.393 531.877C809.392 530.43 812.518 529.273 815.646 528.623L805.481 544.365C794.662 546.06 783.846 547.765 773.027 549.577C772.635 549.72 772.247 549.72 771.856 549.835L785.671 529.532ZM817.6 528.347C820.337 527.826 822.945 527.697 825.682 527.826C841.843 528.623 847.45 533.947 849.275 538.506C839.239 539.809 829.203 541.11 819.166 542.557H818.775C814.996 543.064 811.217 543.599 807.305 544.249L817.6 528.347ZM850.837 538.39C848.23 530.951 839.759 526.927 825.682 526.277C822.816 526.134 819.949 526.393 817.079 526.927H816.821C813.171 527.581 809.392 528.738 806.002 530.43C803.264 528.738 797.79 526.277 790.883 526.927C788.667 527.046 786.712 527.581 785.017 528.088H784.888C780.717 529.532 777.718 531.734 775.897 533.297C770.943 531.993 765.728 531.486 760.645 531.486C758.562 531.486 755.171 531.486 751.263 531.993C756.083 527.319 759.603 521.967 761.82 516.248C764.295 509.739 764.424 504.254 764.036 499.175C763.903 497.483 763.644 495.791 763.382 494.109C762.599 488.366 761.82 482.388 763.644 474.953C764.686 470.67 766.249 467.531 768.073 465.07C769.769 462.71 771.594 461.018 773.418 459.064C777.197 455.418 780.979 451.786 783.325 443.826C788.146 427.158 783.192 398.899 764.295 392.529C761.82 391.603 759.082 391.229 756.475 391.229C757.649 385.873 763.774 358.785 767.294 347.598C771.202 334.692 767.944 312.294 751.392 305.533C749.438 304.74 747.351 304.883 745.397 306.044C731.32 314.116 720.763 368.698 719.721 376.249C718.809 383.412 717.113 389.131 714.376 398.507C713.072 403.066 711.38 408.924 709.423 416.087C706.427 427.158 704.731 432.759 703.298 437.719C702.256 441.484 701.215 444.739 699.911 449.559C693.395 473.39 692.22 503.733 689.875 564.045C689.745 566.387 689.875 569.111 691.57 570.023H691.699C692.091 570.153 692.35 570.296 692.741 570.296C695.216 570.296 698.215 567.041 698.866 566.387L698.998 566.244L703.039 557.39C703.039 558.431 703.039 559.487 703.169 560.644C703.428 562.207 703.948 567.157 707.598 569.904C708.381 570.411 709.164 570.803 710.206 571.208C710.206 571.208 710.335 571.324 710.468 571.324H710.597C711.772 571.715 712.943 571.858 714.376 571.858C718.417 571.858 723.108 570.023 726.891 566.115C729.236 568.069 731.711 569.111 732.624 569.502C737.448 572.509 742.66 574.463 748.263 574.97C759.341 576.274 768.073 572.107 772.635 569.37C776.155 572.25 783.192 576.808 792.708 577.316H794.403C798.311 577.316 805.61 576.665 812.13 572.628C812.259 572.628 812.388 572.509 812.388 572.509C814.213 571.324 815.908 569.904 817.471 568.199C819.166 566.387 820.47 564.161 821.512 561.829C826.203 563.783 831.419 564.045 836.11 562.741C838.456 562.091 840.801 560.906 842.888 559.487C849.796 554.394 853.312 545.277 850.837 538.39ZM160.193 569.645C155.24 527.581 147.812 485.37 137.908 444.088C127.998 402.674 115.484 361.535 100.756 321.554C100.627 321.163 100.235 321.02 99.8438 321.163C99.4523 321.279 99.3229 321.67 99.4523 322.062C114.18 361.924 126.694 403.066 136.604 444.347C146.508 485.904 154.069 528.623 159.022 571.065C157.718 571.065 155.502 569.254 154.198 567.691L147.553 553.223C147.032 551.674 146.378 550.37 145.857 549.185C145.595 548.535 145.337 548.014 145.074 547.36C142.599 541.644 143.641 537.736 144.816 532.255C145.728 528.476 146.77 523.921 147.032 517.552C147.291 510.389 146.249 507.134 144.162 500.479C142.337 494.763 139.6 486.024 136.342 469.482C135.038 462.973 133.997 457.907 132.825 450.601C131.001 438.88 130.609 431.598 130.347 426.389C129.952 419.996 129.819 416.884 127.474 412.441C122.132 402.296 109.359 393.69 96.8445 393.179C95.9322 388.883 89.5489 360.623 85.8994 349.161C81.9878 336.53 85.8994 315.158 100.886 308.907C102.448 308.257 104.014 308.386 105.58 309.299C118.874 316.996 129.561 371.303 130.476 378.322C131.522 385.628 133.084 391.344 135.951 400.853C137.255 405.408 138.95 411.141 140.904 418.433C143.903 429.644 145.595 435.114 147.032 440.064C148.074 443.826 149.115 446.951 150.419 451.901C156.806 475.603 158.11 505.83 160.455 566.115C160.455 567.807 160.326 568.849 160.193 569.645ZM147.032 562.741C146.899 564.161 146.249 568.604 143.25 570.946C142.729 571.324 142.208 571.596 141.687 571.858L128.257 525.365L144.816 508.813C145.337 511.417 145.595 514.021 145.466 517.667C145.207 523.788 144.295 528.231 143.382 532.136C142.079 537.736 141.033 542.022 143.641 548.157C143.903 548.664 144.162 549.314 144.424 549.965C145.857 553.223 147.812 557.39 147.032 562.741ZM126.17 567.3C127.607 565.853 128.778 564.161 129.428 561.948C131.522 554.666 126.17 548.157 124.216 545.668C118.483 538.768 110.268 535.901 103.102 534.597C97.6275 529.651 93.7193 524.064 91.3703 517.929C89.1574 512.067 88.7659 507.134 89.1574 502.433L124.607 517.929L140.383 572.25C136.083 573.278 130.476 571.974 126.17 567.3ZM118.483 570.411C113.921 573.278 108.838 575.113 103.493 575.767C96.7186 576.533 90.72 575.232 86.1582 573.407L100.103 556.998C109.226 558.69 118.483 560.386 127.474 562.34C125.649 567.3 120.304 569.761 118.483 570.411ZM79.6422 570.153C79.38 570.023 78.9885 570.023 78.7298 570.153C75.4718 572.9 68.5609 577.574 59.0491 578.109C56.3119 578.228 48.2333 578.228 41.1931 574.058L65.3029 550.877C69.7388 551.527 74.0352 552.324 78.3383 553.09C84.9871 554.278 91.7618 555.436 98.4139 556.62L84.8543 572.9C82.7742 571.974 80.9426 570.946 79.6422 570.153ZM35.586 569.499C33.8975 567.548 32.4608 565.346 31.4157 562.861C31.2897 562.741 31.1569 562.483 31.0276 562.483H30.7654C30.6395 562.483 30.5067 562.483 30.5067 562.598C26.3363 564.553 21.6417 564.944 17.3419 564.045L32.9817 546.203C43.1472 547.622 53.4488 549.185 63.6109 550.877L40.0219 573.55C38.4593 572.25 36.8899 570.946 35.586 569.499ZM15.7759 563.392C13.6958 562.741 11.7417 561.686 9.91357 560.386C3.65631 555.827 0.527685 548.014 2.0937 541.76C11.8677 542.945 21.5157 544.249 31.2897 545.668L15.7759 563.392ZM26.0776 529.78C28.6854 529.651 31.4157 529.923 34.1562 530.301L44.3251 546.203C40.5394 545.668 36.764 545.018 32.8523 544.511H32.4608C22.4281 543.064 12.392 541.76 2.35244 540.46C4.30655 535.901 9.91357 530.573 26.0776 529.78ZM45.4928 533.947C45.7549 534.09 46.0137 534.09 46.1464 533.947C48.6214 532.384 53.8335 529.923 60.741 530.43C62.6986 530.573 64.5267 530.951 66.2153 531.605L80.0337 551.919C79.6422 551.789 79.2507 551.789 78.8626 551.674C68.1728 549.835 57.2243 548.157 46.4052 546.462L36.2397 530.693C39.3717 531.486 42.4969 532.527 45.4928 533.947ZM105.706 536.551C111.834 537.998 118.35 540.851 123.045 546.462C124.866 548.664 129.561 554.523 128.124 560.787C125.649 560.253 123.303 559.878 120.828 559.344L105.706 536.551ZM75.0803 536.814C75.2131 536.943 75.4718 537.086 75.7305 536.943C80.6839 535.639 85.8994 534.989 90.9788 535.132C93.7193 535.132 98.4139 535.251 103.626 536.16L118.742 558.952C112.617 557.781 106.36 556.62 100.235 555.436H100.103C93.978 554.278 87.9863 553.223 81.9878 552.181L68.5609 532.384C71.5602 533.831 73.7764 535.639 75.0803 536.814ZM85.6373 467.531L110.663 469.873L123.954 516.105L89.1574 500.88C89.2902 499.437 89.5489 497.874 89.6749 496.441C90.4613 490.582 91.2443 484.461 89.2902 476.787C88.5038 472.883 87.1999 470.016 85.6373 467.531ZM135.951 475.879C138.821 488.628 141.033 496.063 142.599 501.129C143.382 503.488 143.903 505.439 144.424 507.134L127.739 523.788L118.742 492.809L135.951 475.879ZM118.35 491.232L101.931 434.464L124.607 411.022C125.132 411.791 125.52 412.571 126.044 413.367C128.124 417.391 128.39 420.53 128.648 426.651C128.907 431.976 129.302 439.138 131.13 450.989C132.301 458.295 133.346 463.507 134.647 469.873C134.909 471.32 135.3 472.74 135.559 474.04L118.35 491.232ZM79.2507 460.106C75.4718 456.46 71.9551 453.086 69.7388 445.532C64.3939 427.301 71.0427 401.646 87.7208 395.903C90.3285 394.99 93.0657 394.599 95.8062 394.742H96.1943C106.751 394.99 117.7 401.503 123.695 409.721L101.406 432.759L95.4147 412.182C95.2819 411.791 94.8904 411.529 94.5023 411.672C94.1108 411.791 93.8521 412.182 93.978 412.571L110.142 468.181L84.4628 465.836C82.9002 463.766 81.0754 461.931 79.2507 460.106ZM151.723 451.786C150.419 446.836 149.378 443.581 148.332 439.921C146.899 434.971 145.207 429.501 142.208 418.304C140.254 411.022 138.558 405.278 137.255 400.72C134.517 391.344 132.825 385.628 131.913 378.465C130.868 371.041 120.304 316.461 106.234 308.257C104.276 307.086 102.189 306.953 100.235 307.736C83.6832 314.507 80.4252 336.908 84.3368 349.814C87.7208 361.001 93.978 388.09 95.156 393.441C92.5482 393.441 89.8077 393.833 87.3361 394.742C68.4349 401.111 63.4816 429.371 68.3022 446.042C70.6512 453.999 74.4267 457.645 78.2123 461.277C80.1665 463.115 81.9878 464.923 83.5504 467.269C85.3786 469.744 86.8084 472.883 87.9863 477.179C89.8077 484.604 89.0247 490.582 88.2451 496.325C87.9863 498.017 87.8535 499.696 87.5948 501.391C87.0705 506.481 87.1999 511.951 89.8077 518.464C92.0239 524.18 95.5406 529.532 100.368 534.209C96.4564 533.688 93.1984 533.688 90.9788 533.688C85.8994 533.688 80.6839 534.209 75.7305 535.51C73.9092 533.947 70.9099 531.734 66.7396 530.301H66.6068C64.7854 529.651 62.9573 529.273 60.741 529.13C53.8335 528.623 48.3593 530.951 45.629 532.647C42.1054 530.951 38.4593 529.78 34.6737 529.13H34.5477C31.6778 528.623 28.8113 528.347 25.9448 528.476C11.8677 529.13 3.39758 533.178 0.789823 540.603C-1.68516 547.503 1.83157 556.62 8.86843 561.829C10.9553 563.392 13.1716 564.433 15.65 565.087C20.3378 566.387 25.5533 566.115 30.248 564.161C31.2897 566.507 32.7195 568.604 34.2856 570.554C35.8516 572.366 37.5436 573.669 39.3683 574.854C39.4977 574.97 39.4977 574.97 39.6304 574.97C46.1464 579.021 53.4488 579.671 57.3571 579.671H59.0491C68.5609 579.137 75.6046 574.578 79.1213 571.715C80.5546 572.628 82.3793 573.55 84.5956 574.463C89.4162 576.417 95.9322 578.109 103.493 577.183C108.968 576.533 114.312 574.711 118.874 571.715C119.919 571.324 122.391 570.296 124.74 568.199C128.516 572.25 133.084 574.058 137.125 574.058C138.558 574.058 139.862 573.812 141.033 573.407C142.079 573.016 142.991 572.628 143.771 571.974C147.291 569.37 147.944 564.433 148.203 562.741C148.332 561.557 148.332 560.529 148.332 559.487L152.373 568.342L152.503 568.457C153.156 569.254 156.152 572.366 158.631 572.366C159.022 572.366 159.414 572.25 159.672 572.107H159.802C161.497 571.208 161.627 568.457 161.497 566.115C159.414 505.946 158.239 475.736 151.723 451.786Z" fill="black"/>
</g>
<path d="M203.334 213.577H139.862V574.578H171.404L137.775 605.575L145.857 615.08L181.828 588.645C184.436 583.971 187.044 579.27 189.519 574.578H190.952L189.519 630.969H203.204L216.236 574.578H627.445L643.085 641.924H656.77L655.204 582.667C658.333 588.254 661.462 593.997 664.458 599.597L700.432 626.022L708.51 616.527L672.019 582.783C672.148 580.063 672.277 577.458 672.41 574.711H702.515V213.577H203.334Z" fill="#F0F0F0"/>
<path d="M278.407 591.134V557.648H485.509V613.78H485.639H450.06V647.248H278.016M278.148 647.248H242.828V591.134H278.407" fill="#DAA826"/>
<path d="M183.394 446.042H345.919V458.152H183.394V446.042ZM320.897 315.692H252.34V306.575H320.897V315.692ZM351.264 301.223H252.34V292.106H351.264V301.223ZM272.412 524.83C272.412 530.301 267.85 534.859 262.376 534.859H214.803C214.803 533.035 214.674 531.227 214.282 529.388C213.632 527.046 212.978 524.83 212.328 522.617C211.807 520.156 211.545 517.667 211.545 515.063V514.804H262.505C267.85 514.804 272.412 519.363 272.412 524.83ZM352.047 534.989H292.093C287.139 534.989 283.231 530.951 283.231 526.134V523.788C283.231 518.855 287.269 514.947 292.093 514.947H352.047C357.001 514.947 360.909 518.971 360.909 523.788V526.134C361.038 530.951 357.001 534.989 352.047 534.989ZM183.394 403.716H361.951V432.901H183.394V403.716ZM539.336 466.618L467.783 414.787L404.703 497.874L380.852 339.642L679.447 295.232L702.386 418.576L619.234 359.176L539.336 466.618ZM689.483 284.555L372.508 330.93L399.487 515.206L716.463 468.831L689.483 284.555Z" fill="#DAA826"/>
<path d="M677.493 246.525H654.946C653.771 246.525 652.859 245.63 652.859 244.441C652.859 243.27 653.771 242.372 654.946 242.372H677.493C678.664 242.372 679.576 243.27 679.576 244.441C679.576 245.63 678.664 246.525 677.493 246.525ZM677.493 253.834H654.946C653.771 253.834 652.859 252.908 652.859 251.737C652.859 250.576 653.771 249.654 654.946 249.654H677.493C678.664 249.654 679.576 250.576 679.576 251.737C679.576 252.908 678.664 253.834 677.493 253.834ZM677.493 260.997H654.946C653.771 260.997 652.859 260.071 652.859 258.9C652.859 257.739 653.771 256.816 654.946 256.816H677.493C678.664 256.816 679.576 257.739 679.576 258.9C679.576 260.071 678.664 260.997 677.493 260.997ZM639.694 253.95C639.694 258.246 636.177 261.763 631.874 261.763H215.194C210.895 261.763 207.375 258.246 207.375 253.95V246.671C207.375 242.372 210.895 238.855 215.194 238.855H632.007C636.307 238.855 639.827 242.372 639.827 246.671L639.694 253.95ZM139.862 233.112V269.069H702.515V233.112H139.862Z" fill="#DAA826"/>
<path d="M224.06 474.837L268.633 481.465V475.994L236.309 464.416L209.72 439.414L174.662 433.93C171.533 433.93 161.889 433.409 152.894 426.246C141.296 416.884 140.121 403.457 139.992 401.254H135.692C135.038 406.061 134.388 416.087 138.821 427.417C142.337 436.534 147.682 442.526 151.07 445.78L224.06 474.837ZM622.492 485.761L577.918 492.417V486.946L610.239 475.344L636.828 450.339L671.889 444.882C675.015 444.882 684.659 444.347 693.654 437.184C705.252 427.809 706.427 414.395 706.556 412.182H711.118C711.772 417 712.422 427.039 707.989 438.369C704.473 447.486 699.128 453.464 695.74 456.719L622.492 485.761Z" fill="#DAA826"/>
<path d="M267.721 481.087C269.937 481.594 273.195 482.245 277.103 482.507C282.319 482.898 288.314 482.65 288.443 482C288.443 481.594 286.098 480.815 274.628 479.395C277.103 477.686 278.278 476.386 278.016 475.735C277.624 474.694 274.237 474.694 267.721 475.735V481.087ZM139.209 400.853C140.775 393.179 141.296 389.131 140.383 388.883C139.992 388.74 139.341 389.39 138.429 390.953C138.429 384.716 138.038 383.269 137.517 383.14C136.734 383.024 135.559 386.929 135.038 389.533C133.997 394.211 134.259 398.116 134.647 400.853H139.209ZM197.859 412.325C197.859 416.087 203.075 418.576 208.158 421.296C210.374 415.046 206.724 403.978 206.724 403.978C202.421 405.813 197.859 408.809 197.859 412.325ZM578.83 486.558C572.444 485.503 568.924 485.503 568.532 486.558C568.27 487.324 569.445 488.509 571.92 490.204C560.583 491.624 558.105 492.417 558.105 492.808C558.105 493.459 564.232 493.717 569.445 493.316C573.356 493.067 576.614 492.417 578.83 491.882V486.558ZM711.901 411.791C712.293 409.067 712.422 405.163 711.509 400.461C710.989 397.857 709.814 393.949 709.035 394.092C708.643 394.092 708.122 395.511 708.122 401.905C707.21 400.342 706.556 399.692 706.165 399.807C705.385 400.07 705.773 404.107 707.339 411.791H711.901ZM331.454 136.625C334.45 132.182 335.754 129.717 335.233 129.326C334.974 129.064 334.191 129.455 333.017 130.374C334.062 125.418 334.062 122.813 333.408 122.554C332.367 122.163 329.888 125.809 325.98 133.37L331.454 136.625ZM353.218 113.046C361.692 110.309 365.733 108.096 365.6 106.666C365.471 105.75 363.775 105.233 360.388 104.841C367.296 101.192 368.599 99.8915 368.47 99.3706C368.079 98.5876 362.475 99.5034 357.78 102.108C354.264 104.062 351.785 106.533 350.352 108.355L353.218 113.046ZM345.399 201.09L370.683 212.927C373.812 211.116 376.811 209.281 379.939 207.327C376.549 203.953 371.466 199.136 364.821 193.784C354.393 185.58 349.181 181.409 342.532 179.98C328.717 177.113 315.682 187.142 310.732 191.439L266.025 216.573L305.778 256.439L346.832 286.506L353.218 278.836L327.805 245.483L304.995 209.019L309.949 216.978C321.547 211.766 333.8 206.299 345.399 201.09ZM639.827 414.787C639.827 414.787 636.177 425.997 638.39 432.105C643.476 429.371 648.688 426.896 648.688 423.134C648.688 419.733 644.127 416.741 639.827 414.787ZM264.33 100.017C262.638 102.622 260.68 104.314 259.247 105.485C256.772 105.093 254.427 106.394 253.644 108.481C252.731 110.952 254.035 114.081 256.902 115.126C256.902 115.776 257.164 118.248 255.339 120.461C254.035 122.023 252.473 122.674 251.819 122.939C252.473 125.278 253.252 127.624 253.906 129.969C255.206 130.368 258.076 131.133 261.726 130.368C264.592 129.71 266.679 128.407 267.721 127.498V119.419C269.025 118.639 270.849 117.206 272.283 114.861C275.67 109.393 274.107 103.013 272.933 98.322C272.283 95.459 270.849 91.1592 267.591 86.342C267.85 88.4255 267.979 94.2878 264.33 100.017ZM655.204 574.711H656.379L655.334 582.783L655.204 574.711Z" fill="#F0F0F0"/>
<mask id="mask1_206_2128" style="mask-type:luminance" maskUnits="userSpaceOnUse" x="131" y="0" width="587" height="651">
<path d="M131.94 0H717.603V651H131.94V0Z" fill="white"/>
</mask>
<g mask="url(#mask1_206_2128)">
<path d="M345.14 290.299H247.778V297.969H345.14V290.299ZM346.573 299.412H246.215V288.722H346.573V299.412ZM715.68 468.181L710.726 434.713C710.335 436.013 709.947 437.317 709.423 438.617C706.685 445.532 702.386 452.044 697.041 457.253C697.824 457.907 698.478 458.673 699.128 459.599C701.215 462.465 702.515 466.227 702.777 470.135L715.68 468.181ZM701.736 477.036C696.911 490.061 676.448 491.113 675.798 501.391C675.147 510.116 688.83 513.5 687.788 521.838C687.267 525.742 683.747 529.532 679.185 532.255C679.185 532.384 679.318 532.384 679.318 532.527C679.447 534.597 679.447 536.694 679.056 538.649C678.405 543.064 676.839 547.36 674.235 551.269L673.19 573.928H701.736V477.036ZM671.627 583.317C671.498 583.174 671.365 582.929 671.365 582.783L672.931 551.139C672.931 551.02 672.931 550.877 673.06 550.761C675.539 546.972 677.231 542.948 677.752 538.649C678.014 536.814 678.014 534.989 678.014 533.178C673.06 535.785 667.065 536.943 662.374 535.639C663.024 537.593 663.545 540.341 662.895 543.714C662.241 546.972 660.679 549.314 659.375 550.761L655.858 573.669L656.117 582.667L665.241 599.325L700.561 625.253L707.731 616.789L671.627 583.317ZM643.864 641.27H656.117L654.421 573.407L657.942 550.227C657.942 550.108 658.071 549.965 658.071 549.835C659.245 548.535 660.679 546.319 661.332 543.323C661.983 540.068 661.332 537.348 660.679 535.639C660.549 535.51 660.679 535.251 660.679 535.132C660.42 534.989 660.158 534.859 659.896 534.744C653.25 531.227 656.246 523.53 648.951 513.5C646.213 509.738 643.085 507.134 639.956 505.18L627.574 571.453L643.864 641.27ZM579.61 491.505L623.404 484.992C623.663 484.992 623.925 484.992 624.054 485.254C631.874 477.686 648.426 470.394 647.385 460.756C646.864 456.198 642.693 453.348 638.523 450.601C638.523 450.601 638.523 450.744 638.39 450.744L611.802 475.736C611.673 475.878 611.673 475.878 611.543 475.878L579.743 487.324V491.505H579.61ZM578.047 491.767V487.453C570.228 486.153 569.315 487.065 569.182 487.065C569.182 487.065 569.315 487.859 572.311 489.928C572.573 490.061 572.703 490.463 572.573 490.711C572.444 490.97 572.311 491.232 571.92 491.232C565.795 492.012 562.408 492.666 560.583 492.924C562.666 493.067 565.924 493.067 569.315 492.924C572.311 492.924 575.31 492.417 578.047 491.767ZM640.348 415.829C639.565 418.304 637.611 426.117 638.914 431.063L639.303 430.947C643.864 428.602 648.168 426.246 648.168 423.25C648.038 420.908 645.301 418.304 640.348 415.829ZM400.141 514.297L557.975 491.232C558.367 491.232 558.758 491.505 558.758 491.883V492.155C560.191 491.624 563.32 491.113 570.095 490.204C568.273 488.757 567.62 487.716 568.011 486.674C568.403 485.503 570.095 484.72 578.83 486.153L610.76 474.575L637.09 449.832C632.919 447.227 629.27 444.623 629.529 440.977C629.791 437.46 633.699 434.856 638.002 432.629C637.869 432.51 637.74 432.51 637.74 432.251C635.524 425.854 638.914 415.046 639.173 414.395C638.914 414.28 638.652 414.133 638.39 414.017C639.044 411.022 639.827 407.883 640.477 404.9C658.595 402.946 666.282 406.97 669.802 411.529C676.839 420.789 668.369 434.202 672.41 443.969H672.669C677.231 443.969 685.963 442.927 693.916 436.418C704.602 427.809 706.297 415.696 706.556 411.92C704.473 402.024 704.731 399.954 705.514 399.3L695.216 329.095L661.591 289.114L393.101 328.326L380.59 375.456C380.46 375.861 380.198 375.977 379.939 375.977H379.807L400.141 514.297ZM379.548 374.152L391.538 328.833L373.291 331.437L379.548 374.152ZM393.622 327.141L660.679 288.072L659.245 286.39L558.237 214.374H525L394.405 324.159L393.622 327.141ZM526.696 212.927H556.021L543.898 204.345C542.073 204.202 540.511 203.552 538.948 202.653L526.696 212.927ZM688.962 285.464L663.545 289.257L695.087 326.763L688.962 285.464ZM560.712 214.374L660.158 285.206L660.287 285.349L662.374 287.81L689.483 283.902C689.612 283.902 689.875 283.902 690.004 284.045C690.133 284.164 690.266 284.293 690.266 284.555L696.782 328.833L700.561 333.391C700.823 333.65 700.823 334.185 700.432 334.433C700.169 334.692 699.649 334.692 699.39 334.304L697.174 331.58L701.865 363.486V214.374H560.712ZM706.427 401.111C706.427 402.024 706.556 404.628 707.86 411.27H711.118C711.51 407.767 711.38 404.25 710.597 400.853C710.076 398.65 709.423 396.696 709.035 395.641C708.902 396.437 708.643 398.245 708.772 402.153C708.772 402.558 708.51 402.803 708.252 402.803C707.989 402.946 707.598 402.803 707.468 402.415C707.077 401.905 706.685 401.374 706.427 401.111ZM695.999 456.198C701.215 451.132 705.385 444.882 707.989 438.11C708.902 435.622 709.685 433.279 710.206 430.947V430.804C711.901 423.785 711.772 417.391 711.247 412.833H708.122C707.731 417.272 705.644 429.255 694.957 437.719C686.875 444.231 678.014 445.389 673.19 445.532C673.581 446.301 674.102 447.084 674.756 447.734C680.622 454.247 689.354 451.51 695.999 456.198ZM478.993 565.465H273.324V586.041H445.498C445.886 586.041 446.277 586.432 446.277 586.834V620.16H478.993V565.465ZM444.844 587.604H239.178V642.302H444.844V587.604ZM218.973 560.529L206.592 494.228C203.466 496.179 200.338 498.787 197.601 502.576C190.302 512.602 193.298 520.156 186.652 523.788C186.39 523.921 186.131 524.064 185.869 524.18C185.869 524.323 186.002 524.571 185.869 524.714C185.219 526.393 184.565 529.13 185.219 532.384C185.869 535.51 187.302 537.593 188.477 538.897C188.606 539.04 188.606 539.156 188.606 539.299L192.126 562.483L191.864 571.974V572.107L190.431 630.318H202.683L218.973 560.529ZM190.431 571.596L190.693 562.483L187.173 539.69C185.869 538.247 184.307 535.901 183.653 532.647C183.003 529.389 183.524 526.526 184.177 524.571C179.483 525.872 173.487 524.714 168.534 522.11C168.405 523.921 168.534 525.742 168.796 527.581C169.446 531.877 171.012 535.901 173.487 539.69C173.62 539.809 173.62 539.952 173.62 540.068L175.183 571.715C175.183 571.974 175.053 572.107 174.921 572.25L138.688 605.575L145.857 614.039L181.178 588.138L190.431 571.596ZM171.142 573.928L173.75 571.453L172.316 540.341C169.709 536.436 168.146 532.255 167.492 527.697C167.234 525.742 167.101 523.673 167.234 521.576C167.234 521.46 167.234 521.317 167.363 521.317C162.801 518.58 159.281 514.804 158.76 510.896C157.718 502.576 171.404 499.175 170.75 490.463C169.971 479.783 147.941 478.99 144.295 464.273C142.991 458.806 144.424 452.695 147.42 448.528C148.074 447.605 148.853 446.836 149.507 446.185C146.12 442.784 143.12 438.88 140.645 434.713V573.812H171.142V573.928ZM138.558 427.158C141.166 433.93 145.337 440.18 150.549 445.273V445.389C157.197 440.715 165.93 443.319 171.663 436.926C172.316 436.275 172.837 435.506 173.229 434.713C168.405 434.58 159.543 433.409 151.461 426.896C140.904 418.433 138.821 406.463 138.296 402.024H135.171C134.647 408.012 134.647 417.129 138.558 427.158ZM135.3 400.461H138.558C139.992 393.69 140.121 391.228 139.992 390.302C139.733 390.575 139.471 390.953 139.079 391.736C138.95 391.994 138.558 392.137 138.296 392.137C138.038 391.994 137.775 391.736 137.775 391.487C137.775 387.698 137.646 385.873 137.517 384.975C136.996 386.016 136.342 387.97 135.951 390.187C135.171 393.441 134.909 396.944 135.3 400.461ZM139.209 388.621V388.999L139.341 388.883C139.209 388.883 139.209 388.74 139.209 388.621ZM206.204 404.9C201.121 407.362 198.513 409.966 198.513 412.325C198.513 415.321 202.813 417.65 207.375 419.996L207.766 420.139C208.941 415.175 206.983 407.362 206.204 404.9ZM208.287 439.789C204.117 442.526 199.946 445.389 199.425 449.947C198.384 459.456 214.936 466.762 222.756 474.432C222.885 474.302 223.147 474.183 223.406 474.183L267.2 480.696V476.644L235.396 465.185C235.267 465.185 235.267 465.07 235.137 465.07L208.549 440.064C208.287 439.921 208.287 439.789 208.287 439.789ZM268.504 476.644V480.944C271.37 481.594 274.237 482 277.236 482.245C280.623 482.507 283.881 482.507 285.968 482.245C284.144 481.857 280.886 481.346 274.628 480.553C274.366 480.553 274.107 480.291 273.975 480.045C273.845 479.783 273.975 479.395 274.237 479.249C277.236 477.179 277.365 476.386 277.365 476.386C277.236 476.137 276.324 475.344 268.504 476.644ZM213.37 522.76L216.89 541.372H254.685C259.768 541.372 264.071 537.205 264.071 531.993C264.071 526.784 259.901 522.617 254.685 522.617H213.37V522.76ZM319.331 212.927H370.295L345.399 201.206L319.331 212.927ZM545.593 16.5385C545.593 8.20458 538.815 1.43326 530.475 1.43326C527.475 1.43326 524.479 2.34563 522.004 4.03761C517.831 6.90411 515.356 11.4626 515.356 16.5385C515.356 24.8759 522.134 31.6472 530.475 31.6472C538.815 31.6472 545.593 24.8759 545.593 16.5385ZM717.246 468.716C717.246 469.094 716.984 469.482 716.592 469.482L703.298 471.436V574.578C703.298 574.97 702.907 575.361 702.515 575.361H673.19L672.802 582.395L709.293 615.993C709.555 616.255 709.555 616.789 709.293 617.034L709.164 617.177L713.984 622.897C704.21 638.523 698.478 645.948 696.653 645.179C695.216 644.528 696.391 638.394 700.302 626.802C700.169 626.802 700.169 626.802 700.04 626.672L664.069 600.247C663.937 600.247 663.937 600.104 663.807 599.975L655.987 585.649L657.421 641.924C657.421 642.183 657.291 642.302 657.158 642.431C657.029 642.574 656.77 642.69 656.638 642.69H656.508L655.075 649.737C633.57 651.415 622.621 651.415 622.362 649.737C622.1 648.29 628.745 645.829 642.302 642.183L627.054 575.361H480.556V620.813C480.556 621.201 480.165 621.593 479.773 621.593H446.277V642.952C446.277 643.344 445.886 643.732 445.498 643.732H238.395C238.004 643.732 237.612 643.344 237.612 642.952V586.834C237.612 586.432 238.004 586.041 238.395 586.041H271.891V575.361H217.019L204.117 631.231C217.54 634.877 224.189 637.365 224.06 638.785C223.797 640.477 212.849 640.477 191.343 638.785L189.91 631.765H189.781C189.519 631.765 189.389 631.622 189.26 631.503C189.127 631.36 188.998 631.112 188.998 630.969L190.431 574.711L182.611 589.037C182.611 589.18 182.482 589.18 182.352 589.296L146.378 615.734C146.378 615.734 146.249 615.734 146.12 615.877C150.028 627.455 151.202 633.573 149.766 634.227C148.074 635.139 142.208 627.714 132.434 611.969L137.255 606.226L137.125 606.11C136.863 605.834 136.863 605.313 137.125 605.068L169.317 575.361H139.733C139.341 575.361 138.95 574.97 138.95 574.578V434.464C138.95 434.059 139.341 433.671 139.733 433.671H139.862C138.821 431.717 137.775 429.644 136.996 427.55C132.825 417 132.955 407.362 133.734 401.111C133.214 397.203 133.346 393.441 134.259 389.652C135.821 382.489 137.125 382.619 137.517 382.762C138.296 382.878 138.821 383.412 138.95 388.348V213.577C138.95 213.186 139.341 212.808 139.733 212.808H261.205C261.593 212.808 261.984 213.186 261.984 213.577C261.984 213.969 261.593 214.374 261.205 214.374H140.513V388.478C141.558 388.883 142.079 390.04 139.733 401.254C139.992 404.9 141.687 417.129 152.373 425.739C160.323 432.105 169.058 433.16 173.62 433.279H173.879C177.92 423.512 169.579 410.109 176.487 400.853C180.003 396.294 187.694 392.137 205.812 394.211C206.462 397.203 207.245 400.342 207.896 403.324C207.637 403.457 207.375 403.6 207.116 403.716C207.375 404.366 210.765 415.175 208.549 421.558C208.549 421.688 208.416 421.83 208.287 421.95C212.457 424.162 216.369 426.767 216.761 430.297C217.019 433.93 213.37 436.418 209.199 439.138L235.529 463.881L267.459 475.487C276.324 474.04 277.886 474.837 278.278 475.994C278.669 476.907 278.016 477.948 276.191 479.511C288.964 481.203 288.835 481.857 288.835 482.65C288.835 483.419 288.052 483.807 284.402 483.95H281.665C279.973 483.95 278.278 483.95 276.712 483.807C273.587 483.549 270.325 483.157 267.2 482.388L223.535 475.878C225.493 478.091 226.535 480.291 226.143 482.507C225.231 488.25 216.369 488.509 207.504 493.574C207.504 493.717 207.637 493.717 207.637 493.837L212.849 521.46H254.427C260.422 521.46 265.242 526.277 265.242 532.255C265.242 538.247 260.422 543.064 254.427 543.064H216.89L220.148 560.529V560.787L217.019 574.058H271.5V564.944C271.5 564.552 271.891 564.161 272.283 564.161H479.773C480.165 564.161 480.556 564.552 480.556 564.944V574.058H626.791L626.271 571.715V571.453L638.782 504.789C638.782 504.646 638.782 504.646 638.914 504.53C630.049 499.437 621.188 499.175 620.275 493.459C619.884 491.113 620.926 488.9 622.883 486.803L579.219 493.316C576.093 494.109 572.965 494.487 569.707 494.763C568.403 494.878 566.449 494.878 564.624 494.878C561.625 494.878 558.625 494.763 557.975 494.109C557.846 493.966 557.713 493.717 557.713 493.459C557.713 493.316 557.713 493.067 557.846 492.924L399.879 515.975H399.75C399.62 515.975 399.487 515.975 399.358 515.86C399.229 515.717 399.096 515.597 399.096 515.325L372.899 338.341H186.914C186.523 338.341 186.131 337.95 186.131 337.558C186.131 337.18 186.523 336.789 186.914 336.789H372.64L371.728 330.93C371.728 330.525 371.987 330.137 372.378 330.137L392.059 327.27L393.101 323.505C393.101 323.362 393.234 323.233 393.363 323.117L522.784 214.374H402.878C402.745 214.374 402.616 214.374 402.616 214.228C400.921 215.675 391.276 216.182 373.812 215.794L372.378 214.112C372.249 214.228 372.12 214.228 371.987 214.228H316.206L311.253 216.444L328.588 244.326L354.001 277.651V277.781C364.038 272.327 369.641 270.23 370.554 271.53C371.728 273.093 365.992 279.997 353.351 291.861L347.485 286.247C347.356 286.39 347.094 286.506 346.965 286.506C346.832 286.506 346.702 286.506 346.573 286.39L305.516 256.163L265.634 216.325C265.375 216.066 265.375 215.532 265.634 215.273C265.896 215.024 266.417 215.024 266.679 215.273L306.429 255.135L346.832 284.814L352.439 278.186L327.284 245.225L304.475 208.631C304.212 208.253 304.345 207.862 304.737 207.599C305.125 207.327 305.516 207.456 305.778 207.862L310.47 215.273C310.47 215.273 310.599 215.14 310.732 215.14L315.814 212.927L345.399 199.643C345.661 199.514 345.79 199.514 346.052 199.643L371.074 211.365L379.156 206.558C374.595 201.999 369.771 197.689 364.821 193.784C354.522 185.58 349.31 181.556 342.924 180.109C330.15 177.375 317.898 186.111 311.773 191.439C311.511 191.701 310.99 191.701 310.732 191.323C310.47 191.047 310.47 190.526 310.861 190.281C317.248 184.667 330.021 175.813 343.315 178.56C350.093 179.98 355.305 184.16 365.862 192.481C371.207 196.647 376.29 201.206 380.981 206.023C381.111 206.156 381.24 206.415 381.24 206.677C393.754 209.281 400.921 211.365 402.878 212.927C403.008 212.811 403.137 212.665 403.399 212.665H525.13L538.557 201.349C537.903 200.814 537.253 200.164 536.732 199.514C534.516 196.647 533.862 192.743 535.036 189.369C535.949 186.765 537.774 184.926 539.469 183.507C540.249 182.713 541.032 182.063 541.685 181.28C543.377 179.067 544.419 176.201 544.681 173.089V172.946C538.948 171.904 534.645 166.954 534.645 160.976C534.645 154.467 539.86 149.112 546.244 148.853V23.3166C543.639 29.0462 537.903 33.0838 531.125 33.0838C522.004 33.0838 514.573 25.6589 514.573 16.5419C514.573 13.2873 515.485 10.2949 517.18 7.69052L368.337 100.807C367.425 101.583 365.733 102.629 362.604 104.321C364.95 104.841 365.992 105.492 366.254 106.533C366.513 107.97 365.079 109.791 353.61 113.696L336.145 129.585C336.145 130.49 335.233 132.328 332.104 137.003C331.975 137.275 331.713 137.275 331.454 137.275C331.325 137.275 331.192 137.275 331.063 137.132C330.671 136.883 330.671 136.482 330.933 136.09C333.15 132.836 334.062 131.14 334.45 130.231C334.191 130.374 333.929 130.619 333.538 130.882C333.279 131.025 333.017 131.14 332.758 130.882C332.496 130.766 332.367 130.374 332.367 130.109C333.279 125.285 333.279 123.726 333.15 123.205C332.625 123.596 330.933 125.418 326.63 133.486C326.501 133.877 325.98 134.02 325.589 133.748C325.197 133.629 325.068 133.094 325.326 132.717C331.192 121.642 332.625 121.118 333.671 121.513C334.583 121.901 335.104 123.205 334.062 128.413C334.45 128.281 334.712 128.155 335.104 128.155L352.698 112.134C352.698 112.134 352.827 112.134 352.827 112.004C352.827 112.004 352.96 112.004 352.96 111.875C364.688 107.97 364.821 106.401 364.821 106.275C364.821 106.275 364.558 105.492 360.259 104.971C359.997 104.971 359.738 104.712 359.605 104.321C359.605 104.062 359.738 103.67 359.997 103.538C360.65 103.146 361.3 102.887 361.951 102.496L367.166 99.2378C365.471 99.3706 361.692 100.283 358.042 102.237C355.305 103.796 352.96 105.75 350.873 108.355C350.614 108.62 350.09 108.746 349.831 108.488C349.569 108.229 349.44 107.705 349.702 107.446C351.915 104.712 354.393 102.629 357.389 101.066C361.692 98.7204 366.904 97.5492 368.47 98.0701C368.599 98.1995 368.729 98.1995 368.858 98.3288L518.355 4.82062C518.484 4.69466 518.743 4.69466 519.005 4.69466C519.655 4.04442 520.438 3.39078 521.221 2.86651C523.959 1.04516 527.217 0.00341797 530.475 0.00341797C537.903 0.00341797 544.29 4.95339 546.244 11.7247C546.635 11.7247 547.027 12.1162 547.027 12.5077V149.109C553.284 149.643 558.367 154.852 558.367 161.218C558.367 167.223 554.064 172.16 548.331 173.201V173.593C548.068 177.641 546.635 181.549 544.419 184.269C543.639 185.311 542.594 186.223 541.682 187.02C540.249 188.32 538.945 189.481 538.424 191.173C537.774 193.127 538.165 195.483 539.469 197.175C541.161 199.391 543.898 200.433 546.635 199.78C549.505 199.129 551.589 196.903 552.239 194.036C552.501 192.879 553.675 192.086 554.847 192.344C556.021 192.617 556.801 193.778 556.542 194.949C555.5 199.507 552.109 203.038 547.548 203.95C547.156 204.066 546.768 204.066 546.376 204.195L558.496 212.805H702.386C702.777 212.805 703.169 213.183 703.169 213.574V367.779C703.169 368.157 702.907 368.548 702.386 368.548L706.948 399.804C707.077 399.947 707.077 399.947 707.21 400.063C707.339 394.476 707.86 393.942 708.772 393.826C709.947 393.683 710.989 396.039 712.03 400.716C712.813 404.506 712.943 408.267 712.551 412.176C713.205 416.993 713.334 423.635 711.639 431.203L717.246 468.716ZM222.623 248.622C222.623 246.525 220.931 244.717 218.715 244.717C216.628 244.717 214.803 246.396 214.803 248.622C214.803 250.695 216.498 252.53 218.715 252.53C220.931 252.53 222.623 250.838 222.623 248.622ZM224.06 248.622C224.06 249.654 223.797 250.576 223.277 251.346L227.709 254.992C227.968 255.251 228.097 255.785 227.838 256.047C227.709 256.163 227.447 256.296 227.318 256.296C227.185 256.296 226.926 256.296 226.797 256.163L222.364 252.53C221.452 253.443 220.148 253.95 218.715 253.95C215.715 253.95 213.37 251.604 213.37 248.622C213.37 245.63 215.715 243.271 218.715 243.271C221.711 243.271 224.06 245.746 224.06 248.622ZM247.649 312.294H314.64V304.624H247.649V312.294ZM246.215 303.177H316.206V313.857H246.215V303.177ZM272.283 98.322C271.5 95.0675 270.196 91.8129 268.504 88.8136C268.371 91.9422 267.591 96.242 264.984 100.276C263.55 102.489 261.855 104.314 259.639 105.876C259.509 106.009 259.247 106.009 259.118 106.009C257.031 105.618 254.948 106.789 254.297 108.613C253.906 109.652 253.906 110.826 254.427 111.871C254.948 113.039 255.989 113.952 257.164 114.343C257.423 114.476 257.685 114.735 257.685 114.993C257.814 116.035 257.814 118.51 255.989 120.856C254.948 122.156 253.773 122.939 252.731 123.327L254.556 129.319C256.251 129.836 258.726 130.225 261.593 129.578C263.55 129.186 265.375 128.277 267.067 127.106V119.293C267.067 119.034 267.2 118.769 267.459 118.639C269.283 117.465 270.717 116.035 271.762 114.343C274.887 109.134 273.324 102.881 272.283 98.322ZM235.658 107.963C234.484 97.5458 242.304 90.6418 243.087 89.9881C243.999 82.6959 249.603 77.2285 256.381 76.5748C261.984 76.0574 267.459 79.0464 270.325 84.2585C270.849 86.9957 271.238 89.6 271.762 92.3337C272.541 94.2878 273.195 96.1092 273.716 98.1961C274.887 103.013 276.453 109.526 272.933 115.385C271.762 117.206 270.325 118.769 268.504 119.943V127.627C268.504 127.886 268.371 128.018 268.242 128.148C266.417 129.578 264.201 130.616 261.984 131.137C260.813 131.409 259.639 131.528 258.597 131.528C256.643 131.528 254.948 131.137 253.773 130.759C253.514 130.616 253.385 130.487 253.252 130.225L251.948 125.802C243.087 123.46 236.7 116.297 235.658 107.963ZM343.315 522.75H285.577C280.494 522.75 276.191 526.917 276.191 532.126C276.191 537.338 280.361 541.491 285.577 541.491H343.315C348.398 541.491 352.698 537.338 352.698 532.126C352.698 526.917 348.527 522.75 343.315 522.75ZM285.577 521.303H343.315C349.31 521.303 354.131 526.124 354.131 532.126C354.131 538.104 349.31 542.935 343.315 542.935H285.577C279.582 542.935 274.758 538.104 274.758 532.126C274.758 526.124 279.582 521.303 285.577 521.303ZM421.255 620.803H297.305V623.407H421.384V620.803H421.255ZM407.178 613.262H297.305V616.895H407.178V613.262ZM421.255 606.477H297.305V609.616H421.255V606.477ZM267.591 615.867L254.818 630.308C255.86 630.843 256.902 631.101 258.076 631.101H276.453C278.016 631.101 279.32 630.57 280.494 629.801L267.591 615.867ZM253.385 600.356C251.948 601.657 250.907 603.611 250.907 605.708V624.058C250.907 626.4 252.081 628.497 253.906 629.801L266.938 615.07L253.385 600.356ZM281.274 629.151C282.71 627.847 283.49 626.012 283.49 623.939V605.565C283.49 603.495 282.577 601.541 281.144 600.237L268.242 614.825L281.274 629.151ZM254.165 599.703C255.339 599.053 256.643 598.545 257.943 598.545H276.324C277.757 598.545 279.061 598.937 280.232 599.703L267.459 614.171L254.165 599.703Z" fill="black"/>
</g>
<path d="M261.726 130.374C258.206 131.14 255.339 130.49 253.906 129.976C250.124 135.699 245.953 143.903 244.128 154.324C238.395 186.23 259.38 211.365 263.03 215.794C267.721 216.182 278.016 216.444 289.094 210.973C303.041 204.202 309.687 193.001 311.903 188.977L289.618 162.018C292.743 163.05 301.087 165.392 310.47 162.018C327.151 156.016 331.325 137.782 331.584 136.625L325.98 133.486C324.414 135.583 319.331 142.211 310.078 144.557C304.604 146 300.042 145.35 297.305 144.816C303.954 140.141 311.253 135.321 319.331 130.49C331.325 123.463 342.661 117.737 353.219 113.046L350.352 108.487L267.721 127.504C266.546 128.281 264.592 129.717 261.726 130.374ZM296.784 375.977L282.84 391.736C283.881 392.257 285.056 392.648 286.356 392.648H306.299C307.995 392.648 309.428 392.137 310.732 391.228L296.784 375.977ZM281.274 359.176C279.582 360.623 278.537 362.693 278.537 365.038V384.975C278.537 387.579 279.84 389.782 281.798 391.228L295.872 375.207L281.274 359.176ZM311.644 390.575C313.207 389.131 314.119 387.177 314.119 384.975V365.038C314.119 362.693 313.077 360.739 311.511 359.319L297.567 375.207L311.644 390.575ZM296.784 374.298L310.732 358.526C309.557 357.743 307.995 357.222 306.429 357.222H286.489C284.923 357.222 283.49 357.743 282.319 358.526L296.784 374.298ZM249.082 376.249L235.267 391.994C236.309 392.529 237.483 392.907 238.787 392.907H258.726C260.422 392.907 261.855 392.386 263.159 391.487L249.082 376.249ZM233.704 359.438C232.009 360.882 230.967 362.955 230.967 365.297V385.223C230.967 387.827 232.268 390.04 234.225 391.487L248.299 375.456L233.704 359.438ZM264.071 390.837C265.634 389.39 266.546 387.436 266.546 385.223V365.297C266.546 362.955 265.505 361.001 263.942 359.581L249.994 375.456L264.071 390.837ZM249.082 374.557L263.03 358.785C261.855 358.019 260.292 357.484 258.726 357.484H238.787C237.221 357.484 235.788 358.019 234.617 358.785L249.082 374.557ZM201.38 375.977L187.435 391.736C188.477 392.257 189.648 392.648 190.952 392.648H210.895C212.59 392.648 214.023 392.137 215.324 391.228L201.38 375.977ZM186.002 359.176C184.307 360.623 183.265 362.693 183.265 365.038V384.975C183.265 387.579 184.565 389.782 186.523 391.228L200.597 375.207L186.002 359.176ZM216.369 390.694C217.932 389.274 218.844 387.32 218.844 385.094V365.181C218.844 362.836 217.802 360.882 216.236 359.438L202.163 375.207L216.369 390.694ZM201.38 374.414L215.324 358.669C214.153 357.876 212.59 357.368 211.024 357.368H191.085C189.519 357.368 188.085 357.876 186.914 358.669L201.38 374.414ZM208.941 280.388C196.688 280.388 186.914 290.299 186.914 302.394C186.914 314.507 196.818 324.417 208.941 324.417C221.06 324.417 230.967 314.507 230.967 302.394C230.967 290.299 221.19 280.388 208.941 280.388ZM549.372 363.227C549.372 377.41 537.903 388.883 523.696 388.883C509.49 388.883 498.021 377.41 498.021 363.227C498.021 349.017 509.49 337.558 523.696 337.558C537.903 337.558 549.372 349.017 549.372 363.227Z" fill="#DAA826"/>
</svg>
