<svg width="117" height="119" viewBox="0 0 117 119" fill="none" xmlns="http://www.w3.org/2000/svg">
<g clip-path="url(#clip0_210_111)">
<path d="M49.9259 59.71C49.9259 74.7161 50.9747 87.3251 43.7314 94.7872C39.6573 98.9851 33.2289 101.458 25.3196 101.458C12.3467 101.458 5.14375 94.9982 0.54636 86.0589C4.97227 83.1701 9.49526 80.3777 14.1051 77.676C15.986 83.0525 22.337 89.0972 29.5042 85.3763C34.0469 83.0159 33.5224 75.8605 33.5224 68.0938C33.5224 51.9679 33.5224 33.3652 33.5224 18.8162C33.5082 18.5741 33.4941 18.3322 33.6885 18.3028C39.102 18.3028 44.5146 18.3028 49.9261 18.3028C49.9259 31.2629 49.9259 45.9253 49.9259 59.71ZM91.1028 49.9581C86.9638 48.1463 81.8191 46.0029 80.5579 42.0858C79.1441 37.6957 81.5551 34.0788 84.2396 32.8481C90.1424 30.1381 97.1775 34.6001 98.6349 39.1782C103.077 36.4754 107.505 33.7563 111.525 30.6234C106.801 22.6046 99.8761 16.8641 87.2533 17.277C80.3032 17.504 75.0822 19.7469 71.1844 23.094C67.3802 26.3599 64.4428 30.9436 63.9855 37.4671C62.6188 56.9928 76.9121 61.977 89.0944 67.4093C92.9347 69.1216 97.2038 70.8507 98.9706 74.2533C102.614 81.2746 96.1604 85.9068 90.601 86.4023C81.6785 87.1968 75.6625 81.8607 72.1881 76.3069C67.8482 79.0568 63.129 81.4183 58.9644 84.3486C64.7569 94.7612 74.2548 101.502 89.0944 101.459C104.233 101.415 115.456 93.9541 116.378 79.9006C117.631 60.7986 103.63 55.44 91.1028 49.9581Z" fill="#F0F0F0"/>
</g>
<defs>
<clipPath id="clip0_210_111">
<rect width="116.137" height="118.715" fill="white" transform="translate(0.431458)"/>
</clipPath>
</defs>
</svg>
