<svg width="117" height="120" viewBox="0 0 117 120" fill="none" xmlns="http://www.w3.org/2000/svg">
<g clip-path="url(#clip0_210_100)">
<path d="M79.8221 28.6921C79.2559 28.6921 78.8784 28.77 78.4974 28.8665V28.9258H78.5554C78.8204 29.4267 79.2559 29.8162 79.5934 30.2799C79.8583 30.803 80.0834 31.3409 80.3302 31.864L80.4064 31.7861C80.86 31.4559 81.0887 30.9366 81.0887 30.1427C80.9 29.9089 80.86 29.6604 80.6931 29.4452C80.5044 29.115 80.087 28.9444 79.8221 28.6921ZM28.3516 93.9593H23.8731C23.7206 86.2317 23.267 78.9641 22.5702 72.1454H22.5339L15.7108 93.9593H12.2884L5.51979 72.1454H5.46172C4.97177 78.6748 4.64876 85.9609 4.51811 93.9593H0.435169C0.700107 84.221 1.36064 75.1022 2.42039 66.5992H7.97681L14.4406 86.6954H14.4769L20.9987 66.5992H26.2902C27.4624 76.5713 28.1629 85.6901 28.3697 93.9593H28.3516ZM47.7828 73.7704C45.9681 83.8945 43.5474 91.2585 40.5823 95.8365C38.2378 99.3719 35.6864 101.149 32.9063 101.149C32.1696 101.149 31.2623 100.915 30.1662 100.452V98.0179C30.7143 98.0958 31.3385 98.1514 32.0389 98.1514C33.3419 98.1514 34.3835 97.7656 35.1783 97.0496C36.1219 96.1592 36.5973 95.1576 36.5973 94.0557C36.5973 93.2841 36.238 91.7371 35.4831 89.3814L30.5872 73.7704H34.9932L38.5099 85.4415C39.3048 88.1089 39.6459 89.9452 39.4935 91.0063C41.4388 85.7494 42.7816 79.9918 43.5401 73.7704H47.7828ZM107.437 93.9593H94.6985V66.5992H98.9883V90.5982H107.437V93.9593ZM91.3704 94.6196L86.4564 92.1452C86.8919 91.7779 87.3056 91.3735 87.6867 90.9098C89.7844 88.4168 90.826 84.6884 90.826 79.7803C90.826 70.7172 87.3492 66.1986 80.3918 66.1986C76.9876 66.1986 74.3237 67.3375 72.4147 69.6376C70.3351 72.1492 69.2754 75.859 69.2754 80.7486C69.2754 85.5602 70.2008 89.0771 72.0554 91.3364C73.7575 93.3472 76.3089 94.3711 79.7313 94.3711C80.9979 94.3711 82.1702 94.2153 83.2299 93.8888L89.6393 97.7137L91.3958 94.6234L91.3704 94.6196ZM75.4379 88.4724C74.3418 86.6954 73.812 83.8351 73.812 79.8916C73.812 72.995 75.8553 69.556 79.9563 69.556C82.094 69.556 83.68 70.387 84.6817 72.0304C85.7596 73.826 86.3076 76.6492 86.3076 80.5519C86.3076 87.4893 84.2461 90.9877 80.1632 90.9877C78.0074 90.9877 76.4396 90.1567 75.4197 88.5133L75.4379 88.4724ZM67.4208 86.3875C67.4208 88.7062 66.5897 90.6204 64.9057 92.0858C63.2435 93.5735 61.0296 94.3266 58.2133 94.3266C55.5857 94.3266 53.0706 93.477 50.5955 91.7742L51.7496 89.4184C53.8654 90.5017 55.7744 91.0434 57.5165 91.0434C59.1243 91.0434 60.3909 90.6761 61.2982 89.9601C62.2055 89.2255 62.7536 88.2016 62.7536 86.9069C62.7536 85.282 61.6394 83.8908 59.6142 82.7333C57.7415 81.6723 53.9816 79.4872 53.9816 79.4872C51.9383 77.9625 50.9366 76.3376 50.9366 73.6516C50.9366 71.4294 51.6915 69.6524 53.2049 68.2983C54.7365 66.9072 56.6818 66.232 59.1025 66.232C61.5777 66.232 63.846 66.9072 65.8892 68.2612L64.8513 70.617C63.1128 69.8639 61.3926 69.4781 59.7086 69.4781C58.3295 69.4781 57.2697 69.8268 56.533 70.502C55.7962 71.1772 55.3426 72.0267 55.3426 73.0914C55.3426 74.7164 56.4785 76.1076 58.5545 77.3021C60.4635 78.3631 64.2996 80.6076 64.2996 80.6076C66.3973 82.1138 67.4389 83.7387 67.4389 86.3838L67.4208 86.3875ZM112.809 57.4248C110.217 57.3654 108.214 57.6363 106.534 58.3708C106.062 58.5637 105.285 58.5637 105.209 59.1833C105.474 59.4541 105.51 59.8807 105.739 60.2443C106.134 60.9009 106.798 61.7913 107.423 62.255C108.105 62.7966 108.784 63.3383 109.484 63.802C110.751 64.5959 112.17 65.0597 113.415 65.8498C114.115 66.3136 114.834 66.9109 115.531 67.3969C115.89 67.6491 116.115 68.0943 116.569 68.2464V68.15C116.34 67.8606 116.285 67.4339 116.057 67.0889C115.734 66.7588 115.414 66.4694 115.091 66.1429C114.148 64.8482 112.994 63.7278 111.727 62.8004C110.689 62.0844 108.421 61.079 108.003 59.8622L107.945 59.7843C108.646 59.7249 109.477 59.4541 110.156 59.2612C111.252 58.9718 112.271 59.0275 113.407 58.7381C113.919 58.6045 114.427 58.4487 114.957 58.2744V57.985C114.373 57.3877 113.937 56.5752 113.331 56.0151C111.687 54.5645 109.872 53.1362 108 51.9565C106.98 51.2813 105.695 50.8547 104.617 50.2945C104.24 50.1016 103.579 50.0051 103.369 49.6749C102.785 48.9404 102.443 47.9944 102.026 47.1226C101.101 45.3048 100.193 43.2977 99.3802 41.3649C98.7959 40.0702 98.4548 38.794 97.7362 37.5957C94.4081 31.9716 90.7789 28.5734 85.2224 25.2308C84.032 24.5334 82.5948 24.244 81.0814 23.8767C80.2685 23.8396 79.4736 23.7803 78.6607 23.7432C78.1308 23.5095 77.6227 22.8936 77.169 22.582C75.3181 21.3837 70.5529 18.8128 69.21 22.2147C68.339 24.3776 70.4948 26.4847 71.2533 27.568C71.8013 28.3397 72.5018 29.1929 72.8974 30.0425C73.126 30.6212 73.1805 31.2222 73.4091 31.8195C73.9208 33.27 74.4108 34.8912 75.0931 36.2453C75.4524 36.9428 75.8298 37.6736 76.2835 38.2932C76.5484 38.6604 77.0021 38.8163 77.0965 39.4135C76.6428 40.0887 76.6065 41.0755 76.3597 41.888C75.1875 45.6349 75.6411 50.2537 77.2852 53.0175C77.8151 53.8485 79.0418 55.6663 80.6895 54.9689C82.1448 54.3716 81.8254 52.4944 82.2392 50.8324C82.3335 50.4281 82.2754 50.1758 82.4678 49.905V49.9829C82.9396 50.9103 83.3933 51.8007 83.8106 52.7281C84.7942 54.3531 86.5507 56.0336 88.0061 57.154C88.7827 57.7513 89.3852 58.7789 90.3506 59.1425V59.046H90.2744C90.0675 58.7566 89.8026 58.6194 89.5376 58.3894C88.9533 57.7921 88.3073 57.0575 87.8355 56.4009C86.4927 54.546 85.2841 52.4981 84.2244 50.391C83.6945 49.3485 83.2408 48.2281 82.8271 47.2042C82.6384 46.8184 82.6384 46.2174 82.3154 46.0245C81.8254 46.7405 81.1068 47.3563 80.7657 48.2652C80.1414 49.6749 80.0834 51.4334 79.8402 53.2512C79.7277 53.2883 79.7821 53.2512 79.7277 53.3291C78.6897 53.0583 78.3304 51.9751 77.9493 51.0476C76.9658 48.6918 76.8134 44.9226 77.6481 42.2182C77.8768 41.5207 78.8385 39.3393 78.4611 38.6827C78.2542 38.0446 77.6118 37.6773 77.2707 37.1765C76.8352 36.557 76.3996 35.7668 76.0984 35.0693C75.3218 33.2144 74.9443 31.1666 74.0951 29.3116C73.7176 28.4621 73.0353 27.5717 72.4873 26.7815C71.863 25.8912 71.1844 25.2568 70.7089 24.2106C70.5384 23.8433 70.3133 23.2461 70.5783 22.8565C70.6363 22.5857 70.767 22.4893 71.0319 22.4113C71.4493 22.0441 72.6579 22.5078 73.0752 22.7193C74.2656 23.2015 75.2673 23.6653 76.269 24.3627C76.7226 24.6929 77.2126 25.3087 77.8005 25.4831H78.4829C79.5208 25.7168 80.6749 25.5425 81.6403 25.8504C83.3606 26.4106 84.9103 27.223 86.3076 28.1097C90.5429 30.8735 94.0198 34.7762 96.3825 39.4321C96.778 40.1852 96.9486 40.8826 97.3079 41.6728C97.9685 43.3163 98.8213 44.956 99.5 46.5216C100.179 48.0871 100.825 49.6712 101.805 50.966C102.295 51.6634 104.225 52.027 105.111 52.3757C105.753 52.6836 106.755 52.9544 107.321 53.3032C108.435 54.0006 109.531 54.7908 110.573 55.5625C111.103 55.9297 112.711 56.7607 112.805 57.4174L112.809 57.4248Z" fill="#F0F0F0"/>
</g>
<defs>
<clipPath id="clip0_210_100">
<rect width="116.137" height="118.715" fill="white" transform="translate(0.431458 0.616211)"/>
</clipPath>
</defs>
</svg>
