<?xml version="1.0" encoding="UTF-8" standalone="no"?>
<!DOCTYPE svg PUBLIC "-//W3C//DTD SVG 1.1//EN" "http://www.w3.org/Graphics/SVG/1.1/DTD/svg11.dtd">
<svg xmlns="http://www.w3.org/2000/svg" version="1.1" viewBox="0 0 512 512">
<rect fill="#000000" x="276.01" y="12.00" width="103.98" height="48.00" rx="12.15"/>
<path fill="#000000" d="
  M 451.98 401.98
  Q 410.32 441.69 353.93 450.03
  Q 344.01 451.50 334.01 451.82
  Q 285.74 453.36 243.44 430.81
  Q 206.02 410.87 180.81 375.44
  Q 154.39 338.29 149.13 291.97
  Q 148.01 282.11 148.10 272.01
  Q 148.68 202.52 195.89 149.92
  A 0.86 0.85 -46.7 0 0 195.86 148.74
  Q 191.72 144.59 187.66 140.54
  Q 182.58 135.46 181.91 134.43
  Q 179.30 130.49 180.30 125.73
  Q 181.17 121.64 183.95 119.03
  Q 186.98 116.18 191.50 116.00
  Q 197.24 115.77 201.37 120.14
  Q 207.19 126.31 213.24 132.36
  A 0.95 0.94 -41.7 0 0 214.51 132.43
  Q 253.25 100.97 303.20 93.76
  A 0.62 0.58 -4.1 0 0 303.72 93.19
  L 303.97 72.97
  A 0.98 0.94 -89.7 0 1 304.91 72.00
  L 351.45 72.06
  A 0.52 0.49 89.4 0 1 351.94 72.57
  L 352.17 93.07
  A 0.59 0.58 3.5 0 0 352.68 93.63
  Q 402.48 100.94 441.51 132.39
  A 0.97 0.96 41.9 0 0 442.80 132.33
  Q 449.31 125.81 455.96 119.47
  Q 461.35 114.33 467.94 116.56
  Q 471.98 117.93 474.17 121.56
  Q 476.24 125.01 475.96 128.88
  Q 475.65 133.20 472.30 136.56
  Q 466.25 142.62 460.11 148.76
  A 0.88 0.87 46.2 0 0 460.09 149.97
  Q 493.92 186.70 504.25 235.75
  Q 511.92 272.16 503.94 309.94
  Q 492.69 363.19 451.98 401.98
  Z
  M 475.95 271.99
  A 147.95 147.95 0.0 0 0 328.00 124.04
  A 147.95 147.95 0.0 0 0 180.05 271.99
  A 147.95 147.95 0.0 0 0 328.00 419.94
  A 147.95 147.95 0.0 0 0 475.95 271.99
  Z"
/>
<path fill="#000000" d="
  M 256.19 387.31
  Q 208.34 357.12 195.48 302.06
  Q 193.16 292.15 192.43 282.31
  Q 189.67 245.40 205.56 212.81
  Q 223.99 175.04 260.67 153.95
  Q 269.54 148.85 278.69 145.31
  Q 302.13 136.21 327.57 136.06
  A 0.43 0.43 0.0 0 1 328.00 136.49
  L 328.00 271.13
  A 0.87 0.87 0.0 0 0 328.87 272.00
  L 462.97 272.00
  A 1.05 1.05 -89.2 0 1 464.02 273.08
  Q 462.45 328.72 424.44 367.69
  Q 396.33 396.50 356.09 405.00
  Q 346.30 407.07 336.29 407.67
  Q 292.62 410.30 256.19 387.31
  Z"
/>
<rect fill="#000000" x="44.11" y="188.04" width="103.78" height="23.92" rx="11.67"/>
<rect fill="#000000" x="4.10" y="236.03" width="127.80" height="23.94" rx="11.73"/>
<rect fill="#000000" x="28.11" y="284.04" width="103.78" height="23.92" rx="11.67"/>
<rect fill="#000000" x="60.13" y="332.06" width="79.74" height="23.88" rx="11.58"/>
</svg>
