<svg width="77" height="77" viewBox="0 0 77 77" fill="none" xmlns="http://www.w3.org/2000/svg">
<path d="M38.4595 0C17.2763 0 0.103966 17.1724 0.103966 38.3556C0.103966 59.5388 17.2763 76.7111 38.4595 76.7111C59.6427 76.7111 76.8151 59.5388 76.8151 38.3556C76.8151 17.1724 59.6427 0 38.4595 0ZM39.1976 32.5709C39.2102 32.5715 39.2221 32.5741 39.235 32.5747C39.1039 32.0125 39.0361 31.4264 39.0361 30.8244C39.0361 26.5833 42.4747 23.1446 46.7165 23.1446C48.9252 23.1446 50.921 24.0773 52.3221 25.57C53.7604 25.2868 55.1214 24.7948 56.3867 24.1432C56.6536 24.0137 56.921 23.885 57.1838 23.7425C56.7285 25.141 55.8737 26.3513 54.7654 27.2683C54.4652 27.5044 54.1568 27.7324 53.8176 27.9191C53.8407 27.9164 53.8632 27.9113 53.8861 27.9085C53.8636 27.9224 53.8449 27.9414 53.822 27.9552C55.0808 27.8046 56.288 27.4981 57.4344 27.0649C57.6914 26.9762 57.9481 26.8865 58.2026 26.7875C57.1775 28.3096 55.8873 29.6484 54.4008 30.7218C54.4154 31.0509 54.4229 31.3819 54.4229 31.7153C54.4229 41.8639 46.6982 53.5662 32.5717 53.5662C28.2346 53.5662 24.1977 52.2951 20.7989 50.116C21.3997 50.1869 22.0113 50.2232 22.6311 50.2232C25.4982 50.2232 28.1768 49.4337 30.4795 48.0747C31.0595 47.7405 31.6268 47.3796 32.1685 46.9712C32.1538 46.9709 32.1404 46.9673 32.1258 46.967C32.1399 46.9561 32.1551 46.9466 32.1691 46.9357C29.2591 46.882 26.7477 45.2068 25.4907 42.7784C25.3034 42.4055 25.1431 42.0149 25.0167 41.6051C25.479 41.692 25.9525 41.7397 26.44 41.7397C26.9481 41.7397 27.4387 41.6744 27.9189 41.5804C28.0983 41.5553 28.2794 41.5343 28.4562 41.5052C28.4328 41.5004 28.4123 41.4902 28.3889 41.4853C28.4132 41.479 28.4393 41.4769 28.4633 41.4703C24.95 40.7648 22.3025 37.6605 22.3025 33.9397C22.3025 33.9104 22.3028 33.8817 22.3031 33.8528L22.3067 33.8446C23.1339 34.3037 24.0587 34.6075 25.0381 34.7346C25.2792 34.7749 25.5207 34.8119 25.762 34.833C25.7456 34.8219 25.7313 34.8084 25.715 34.7973C25.7378 34.7982 25.7595 34.8027 25.782 34.8035C23.7213 33.4264 22.3655 31.0753 22.3655 28.411C22.3655 27.1911 22.6633 26.0457 23.1696 25.0215C23.2504 24.8674 23.3221 24.7101 23.4149 24.5609C26.8176 28.7294 31.7326 31.5984 37.3189 32.3743C37.9422 32.465 38.5673 32.5457 39.1997 32.5823C39.1988 32.5787 39.1985 32.5747 39.1976 32.5709Z" fill="#F5BD2A"/>
</svg>
