<?xml version="1.0" encoding="UTF-8" standalone="no"?>
<!DOCTYPE svg PUBLIC "-//W3C//DTD SVG 1.1//EN" "http://www.w3.org/Graphics/SVG/1.1/DTD/svg11.dtd">
<svg xmlns="http://www.w3.org/2000/svg" version="1.1" viewBox="0 0 512 512">
<path fill="#000000" d="
  M 512.00 96.31
  L 512.00 173.42
  L 0.00 173.38
  L 0.00 95.69
  Q 2.70 67.23 25.06 52.06
  Q 37.70 43.49 53.52 42.29
  Q 54.08 42.25 73.49 42.25
  Q 257.50 42.25 441.51 42.25
  Q 458.05 42.25 461.48 42.65
  Q 479.40 44.74 492.94 56.81
  Q 510.15 72.16 512.00 96.31
  Z
  M 443.47 121.02
  A 13.23 13.23 0.0 0 0 430.24 107.79
  L 299.12 107.79
  A 13.23 13.23 0.0 0 0 285.89 121.02
  L 285.89 121.50
  A 13.23 13.23 0.0 0 0 299.12 134.73
  L 430.24 134.73
  A 13.23 13.23 0.0 0 0 443.47 121.50
  L 443.47 121.02
  Z
  M 95.00 121.30
  A 13.36 13.36 0.0 0 0 81.64 107.94
  A 13.36 13.36 0.0 0 0 68.28 121.30
  A 13.36 13.36 0.0 0 0 81.64 134.66
  A 13.36 13.36 0.0 0 0 95.00 121.30
  Z
  M 153.08 121.30
  A 13.35 13.35 0.0 0 0 139.73 107.95
  A 13.35 13.35 0.0 0 0 126.38 121.30
  A 13.35 13.35 0.0 0 0 139.73 134.65
  A 13.35 13.35 0.0 0 0 153.08 121.30
  Z
  M 211.18 121.30
  A 13.36 13.36 0.0 0 0 197.82 107.94
  A 13.36 13.36 0.0 0 0 184.46 121.30
  A 13.36 13.36 0.0 0 0 197.82 134.66
  A 13.36 13.36 0.0 0 0 211.18 121.30
  Z"
/>
<path fill="#000000" d="
  M 512.00 200.35
  L 512.00 415.56
  Q 510.55 435.77 497.94 450.19
  Q 482.83 467.46 458.99 469.39
  Q 454.61 469.75 446.25 469.75
  Q 255.50 469.75 64.75 469.85
  Q 59.12 469.86 53.50 469.48
  Q 41.26 468.66 30.77 463.25
  Q 21.94 458.70 15.00 451.13
  Q 1.76 436.69 0.00 415.94
  L 0.00 200.33
  L 512.00 200.35
  Z
  M 149.19 364.81
  Q 168.14 382.15 192.52 377.73
  Q 202.59 375.90 211.07 370.61
  Q 228.17 359.92 233.28 339.93
  Q 234.74 334.20 234.87 324.43
  Q 235.15 303.71 234.98 282.98
  Q 234.93 276.10 233.86 273.28
  Q 231.86 267.96 226.57 265.91
  Q 221.94 264.12 217.26 265.62
  Q 212.11 267.27 209.65 272.15
  Q 208.26 274.91 208.19 280.11
  Q 207.89 300.12 207.96 320.12
  Q 208.00 331.55 206.51 335.71
  Q 203.71 343.58 195.76 348.23
  Q 189.33 352.00 182.50 351.50
  Q 169.65 350.56 162.98 339.28
  Q 159.75 333.82 159.75 326.75
  Q 159.75 302.87 159.75 279.00
  Q 159.75 272.31 155.45 268.41
  Q 151.54 264.85 145.64 264.94
  Q 137.79 265.06 134.34 272.34
  Q 133.01 275.14 132.94 279.91
  Q 132.57 302.95 132.65 326.00
  Q 132.72 349.74 149.19 364.81
  Z
  M 302.90 321.85
  Q 288.17 336.78 273.30 351.59
  Q 268.68 356.19 267.97 357.18
  Q 265.50 360.65 265.50 364.75
  Q 265.50 371.08 269.86 374.83
  Q 274.00 378.38 279.34 378.16
  Q 284.95 377.92 289.69 373.19
  Q 305.75 357.13 321.81 341.06
  A 0.81 0.80 -44.7 0 1 322.94 341.06
  Q 339.69 357.81 356.31 374.44
  Q 361.59 379.71 368.54 378.01
  Q 372.53 377.03 375.28 374.35
  Q 378.31 371.38 378.94 367.19
  Q 379.72 361.94 377.01 357.72
  Q 376.14 356.37 370.72 351.01
  Q 356.12 336.61 341.70 321.95
  A 0.56 0.55 -44.6 0 1 341.71 321.17
  Q 358.25 304.62 374.68 288.17
  Q 378.72 284.13 379.00 278.83
  Q 379.22 274.86 377.29 271.45
  Q 375.25 267.83 371.44 266.06
  Q 366.60 263.81 361.88 265.31
  Q 358.88 266.26 354.55 270.50
  Q 338.97 285.73 322.93 301.96
  A 0.78 0.77 44.7 0 1 321.84 301.96
  Q 307.08 287.30 292.84 273.19
  Q 287.09 267.49 287.03 267.45
  Q 283.43 264.67 279.00 264.75
  Q 271.11 264.89 267.54 271.10
  Q 265.10 275.35 265.69 279.87
  Q 266.31 284.60 270.19 288.31
  Q 275.69 293.57 302.90 321.15
  A 0.49 0.49 -0.0 0 1 302.90 321.85
  Z"
/>
</svg>
