<svg width="112" height="114" viewBox="0 0 112 114" fill="none" xmlns="http://www.w3.org/2000/svg">
<g clip-path="url(#clip0_210_102)">
<path d="M56.0398 0.616211C25.5729 0.617975 0.808403 25.936 0.803009 57.0771C0.808403 88.2165 25.5729 113.534 56.0398 113.54C86.5031 113.534 111.271 88.2165 111.275 57.0771C111.271 25.936 86.5031 0.617975 56.0398 0.616211ZM91.5831 93.4077C82.4657 102.724 69.9081 108.483 56.0398 108.485C42.1696 108.483 29.6105 102.724 20.4964 93.4077C11.3824 84.0913 5.74986 71.2517 5.74792 57.0771C5.74965 42.9008 11.3824 30.0648 20.4964 20.7451C29.6105 11.4322 42.1696 5.67285 56.0398 5.67087C69.9084 5.67263 82.4657 11.4322 91.5831 20.7448C100.694 30.0646 106.328 42.8988 106.33 57.0769C106.328 71.2517 100.694 84.0913 91.5831 93.4077Z" fill="#F0F0F0"/>
<path d="M16.3446 38.9614H16.0328C13.629 44.5013 12.285 50.6254 12.285 57.0771C12.285 74.6811 22.2337 89.9002 36.6962 97.1999L16.3465 38.9614H16.3446Z" fill="#F0F0F0"/>
<path d="M80.8876 40.8433C77.1152 35.4503 77.6747 24.4257 84.6117 23.218C76.9439 16.4531 66.9622 12.3508 56.0399 12.3508C40.5277 12.3508 26.9103 20.6066 19.1404 33.0513H35.1567V38.9611H28.7012L43.647 81.7236L54.131 53.0772L49.1948 38.9609H41.7278V33.0511H68.5312V38.9609H61.5495L76.6217 82.0952L84.26 61.237C85.6144 55.6147 84.8228 46.484 80.8876 40.8433Z" fill="#F0F0F0"/>
<path d="M96.7136 40.5974C96.6963 40.7672 96.6791 40.939 96.6547 41.1056C95.5964 48.3662 89.0179 64.2917 89.0179 64.2917L79.4934 90.3162L77.3683 96.1269C90.7466 88.4767 99.7947 73.8629 99.7947 57.077C99.7949 51.2539 98.695 45.6982 96.7136 40.5974Z" fill="#F0F0F0"/>
<path d="M46.5154 89.9321L42.9196 99.7549C47.0628 101.086 51.4674 101.803 56.0399 101.803C61.037 101.803 65.8331 100.938 70.3068 99.3581L56.9994 61.2786L46.5154 89.9321Z" fill="#F0F0F0"/>
</g>
<defs>
<clipPath id="clip0_210_102">
<rect width="110.472" height="112.924" fill="white" transform="translate(0.803009 0.616211)"/>
</clipPath>
</defs>
</svg>
