<svg width="117" height="119" viewBox="0 0 117 119" fill="none" xmlns="http://www.w3.org/2000/svg">
<g clip-path="url(#clip0_210_91)">
<path fill-rule="evenodd" clip-rule="evenodd" d="M24.7696 17.373C18.1429 17.373 13.2395 23.3179 13.459 29.7651C13.6696 35.9591 13.396 43.9811 11.4256 50.5232C9.44934 57.0842 6.10691 61.2406 0.647499 61.7743V67.7987C6.10691 68.3323 9.44934 72.4888 11.4256 79.0503C13.396 85.5919 13.6696 93.6141 13.459 99.808C13.2395 106.254 18.1429 112.2 24.7705 112.2H92.6711C99.2982 112.2 104.201 106.255 103.981 99.808C103.77 93.6141 104.044 85.5919 106.014 79.0503C107.992 72.4888 111.325 68.3323 116.785 67.7987V61.7743C111.325 61.2406 107.992 57.0842 106.014 50.5232C104.044 43.9821 103.77 35.9591 103.981 29.7651C104.201 23.3189 99.2982 17.373 92.6711 17.373H24.7696ZM79.3846 75.745C79.3846 84.6227 72.924 90.0067 62.2031 90.0067H43.9528C43.4308 90.0067 42.9301 89.794 42.561 89.4155C42.1918 89.0371 41.9844 88.5242 41.9844 87.989V41.5842C41.9844 41.0491 42.1918 40.536 42.561 40.1576C42.9301 39.7792 43.4308 39.5666 43.9528 39.5666H62.099C71.0382 39.5666 76.905 44.5299 76.905 52.1504C76.905 57.4989 72.9588 62.2877 67.9301 63.1259V63.4056C74.7754 64.1754 79.3846 69.0337 79.3846 75.745ZM60.2132 45.9624H49.8069V61.0279H58.5714C65.3465 61.0279 69.0827 58.2315 69.0827 53.2328C69.0827 48.549 65.8701 45.9624 60.2132 45.9624ZM49.8069 67.0061V83.6089H60.596C67.6499 83.6089 71.3866 80.7074 71.3866 75.2549C71.3866 69.8015 67.5454 67.0051 60.1421 67.0051L49.8069 67.0061Z" fill="#F0F0F0"/>
</g>
<defs>
<clipPath id="clip0_210_91">
<rect width="116.137" height="118.715" fill="white" transform="matrix(1 0 0 -1 0.647491 118.715)"/>
</clipPath>
</defs>
</svg>
