<svg width="78" height="77" viewBox="0 0 78 77" fill="none" xmlns="http://www.w3.org/2000/svg">
<circle cx="38.6675" cy="38.3556" r="38.3556" fill="#F5BD2A"/>
<path fill-rule="evenodd" clip-rule="evenodd" d="M37.7205 17.9752C38.3819 17.5363 39.2418 17.5363 39.9032 17.9752L58.7835 30.5048C59.3348 30.8706 59.666 31.488 59.666 32.1495V44.8507C59.666 45.5122 59.3348 46.1296 58.7835 46.4954L39.9032 59.0251C39.2418 59.4639 38.3819 59.4639 37.7205 59.0251L18.8401 46.4954C18.289 46.1296 17.9577 45.5122 17.9577 44.8507V32.1495C17.9577 31.488 18.289 30.8706 18.8401 30.5048L37.7205 17.9752ZM21.9054 35.8284V41.1439L25.8831 38.4682L21.9054 35.8284ZM29.4434 40.8308L23.4844 44.8396L36.838 53.7016V45.7383L29.4434 40.8308ZM40.7857 45.7383V53.7016L54.1393 44.8396L48.1804 40.8308L40.7857 45.7383ZM51.7406 38.4682L55.7183 41.1439V35.8284L51.7406 38.4682ZM54.1225 32.1495L48.1952 36.083L40.7857 31.0984V23.2987L54.1225 32.1495ZM36.838 23.2987V31.0984L29.4285 36.083L23.5012 32.1495L36.838 23.2987ZM38.8119 34.5284L32.9888 38.4457L38.8119 42.3102L44.635 38.4457L38.8119 34.5284Z" fill="#171717"/>
</svg>
