<svg width="117" height="119" viewBox="0 0 117 119" fill="none" xmlns="http://www.w3.org/2000/svg">
<g clip-path="url(#clip0_210_85)">
<path d="M46.5037 10.8239V15.9291H33.7327V0.116211H46.5037V5.71109H39.2061V10.8239H46.5037ZM59.632 5.71109H64.7338V0.116211H51.9614C51.9614 0.116211 51.9614 2.92455 51.9614 5.71109C53.6702 7.45772 54.5612 8.29383 57.0325 10.82C55.5878 10.82 51.9614 10.8249 51.9614 10.8249V15.9291H64.7338V10.8239L59.632 5.71109ZM77.7342 5.71109H82.8356V0.116211H70.0637C70.0637 0.116211 70.0637 2.92455 70.0637 5.71109C71.7719 7.45772 72.6634 8.29383 75.1345 10.82C73.6907 10.82 70.0637 10.8249 70.0637 10.8249V15.9291H82.8358V10.8239L77.7342 5.71109ZM99.6571 23.4443L91.8988 109.347L58.2841 118.598L24.6687 109.347L16.9116 23.4443H99.6571ZM84.0244 40.9111H58.2537H32.0276L33.2817 51.2844H58.2537H59.6565L58.2537 51.8813L34.1945 62.1243L34.9925 72.2637L58.2537 72.341L70.721 72.3815L69.9224 85.9017L58.2537 89.2601V89.2494L58.158 89.2763L46.8882 86.3683L46.2043 77.9759H46.1671H35.7136H35.6768L37.0451 94.1777L58.2537 100.588V100.577L58.2918 100.588L79.3871 94.2943L82.1243 62.1245H58.2537H58.1948L58.2537 62.0986L82.9978 51.2847L84.0244 40.9111Z" fill="#F0F0F0"/>
</g>
<defs>
<clipPath id="clip0_210_85">
<rect width="116.137" height="118.715" fill="white" transform="translate(0.215729)"/>
</clipPath>
</defs>
</svg>
