<?xml version="1.0" encoding="UTF-8" standalone="no"?>
<!DOCTYPE svg PUBLIC "-//W3C//DTD SVG 1.1//EN" "http://www.w3.org/Graphics/SVG/1.1/DTD/svg11.dtd">
<svg xmlns="http://www.w3.org/2000/svg" version="1.1" viewBox="0 0 512 512">
<path fill="#000000" d="
  M 55.72 332.00
  Q 39.81 322.79 39.84 304.00
  Q 39.99 209.39 40.00 114.77
  Q 40.00 106.45 41.34 101.89
  Q 46.50 84.36 66.00 80.25
  Q 68.32 79.76 79.75 79.78
  Q 236.35 79.99 392.96 80.00
  Q 405.67 80.00 409.94 81.15
  Q 418.68 83.52 424.81 90.69
  Q 428.55 95.06 430.42 100.74
  Q 431.74 104.74 431.80 111.92
  Q 432.17 154.70 431.99 199.10
  A 0.84 0.84 -0.2 0 1 431.15 199.94
  Q 401.34 200.05 371.00 200.00
  Q 364.54 199.99 358.90 201.76
  Q 353.24 203.54 348.36 207.53
  Q 339.20 214.99 336.81 226.31
  Q 336.00 230.18 336.00 246.25
  Q 336.00 290.34 336.00 335.23
  A 0.71 0.70 -90.0 0 1 335.30 335.94
  Q 203.22 336.05 70.75 336.02
  Q 62.67 336.02 55.72 332.00
  Z
  M 255.89 299.22
  A 7.62 7.62 0.0 0 0 248.27 291.60
  L 223.73 291.60
  A 7.62 7.62 0.0 0 0 216.11 299.22
  L 216.11 299.86
  A 7.62 7.62 0.0 0 0 223.73 307.48
  L 248.27 307.48
  A 7.62 7.62 0.0 0 0 255.89 299.86
  L 255.89 299.22
  Z"
/>
<path fill="#000000" d="
  M 471.8517 414.7646
  A 17.33 17.33 0.0 0 1 454.4915 432.0643
  L 369.1316 431.9153
  A 17.33 17.33 0.0 0 1 351.8319 414.5551
  L 352.1483 233.2754
  A 17.33 17.33 0.0 0 1 369.5085 215.9757
  L 454.8684 216.1247
  A 17.33 17.33 0.0 0 1 472.1681 233.4849
  L 471.8517 414.7646
  Z
  M 431.89 399.68
  A 7.62 7.62 0.0 0 0 424.27 392.06
  L 399.73 392.06
  A 7.62 7.62 0.0 0 0 392.11 399.68
  L 392.11 400.32
  A 7.62 7.62 0.0 0 0 399.73 407.94
  L 424.27 407.94
  A 7.62 7.62 0.0 0 0 431.89 400.32
  L 431.89 399.68
  Z"
/>
<path fill="#000000" d="
  M 324.28 417.49
  Q 326.74 419.14 327.57 421.73
  Q 328.36 424.15 327.39 426.73
  Q 326.19 429.94 323.10 431.25
  Q 321.32 432.00 317.30 432.00
  Q 234.77 432.00 152.25 432.00
  Q 148.81 432.00 146.54 429.77
  Q 144.54 427.79 144.22 424.60
  Q 143.75 419.76 147.68 417.42
  Q 149.95 416.07 154.70 416.05
  Q 169.14 415.99 183.19 415.94
  A 0.83 0.82 90.0 0 0 184.01 415.11
  L 184.18 352.70
  A 0.51 0.51 0.0 0 1 184.69 352.19
  L 287.30 352.06
  A 0.71 0.70 -90.0 0 1 288.00 352.77
  L 288.18 415.31
  A 0.52 0.51 0.6 0 0 288.69 415.82
  Q 312.72 416.35 317.75 416.00
  Q 321.64 415.73 324.28 417.49
  Z"
/>
</svg>
