<svg width="106" height="109" viewBox="0 0 106 109" fill="none" xmlns="http://www.w3.org/2000/svg">
<g clip-path="url(#clip0_210_109)">
<path d="M53.1428 54.5444C53.1428 30.5834 88.3156 30.5834 88.3156 54.5444C88.3156 78.5055 53.1428 78.5055 53.1428 54.5444ZM17.9701 90.4978C17.9701 80.5615 25.8342 72.5228 35.5548 72.5228H53.1395V90.4978C53.1395 114.459 17.9668 114.459 17.9668 90.4978H17.9701ZM53.1428 0.616163V36.5695H70.7275C94.1683 36.5695 94.1683 0.616163 70.7275 0.616163H53.1428ZM17.9701 18.5911C17.9701 28.5274 25.8342 36.5661 35.5548 36.5661H53.1395V0.612793H35.5548C25.8342 0.612793 17.9701 8.65148 17.9701 18.5878V18.5911ZM17.9701 54.5444C17.9701 64.4807 25.8342 72.5228 35.5548 72.5228H53.1395V36.5661H35.5548C25.8342 36.5661 17.9701 44.6082 17.9701 54.5444Z" fill="#F0F0F0"/>
</g>
<defs>
<clipPath id="clip0_210_109">
<rect width="105.515" height="107.857" fill="white" transform="translate(0.385376 0.616211)"/>
</clipPath>
</defs>
</svg>
