<svg width="42" height="42" viewBox="0 0 42 42" fill="none" xmlns="http://www.w3.org/2000/svg">
<path fill-rule="evenodd" clip-rule="evenodd" d="M21.0174 0C9.39531 0 0 9.62496 0 21.5323C0 31.0506 6.0199 39.1075 14.3711 41.9591C15.4152 42.1735 15.7977 41.4958 15.7977 40.9258C15.7977 40.4266 15.7632 38.7155 15.7632 36.9327C9.91672 38.2163 8.69923 34.3659 8.69923 34.3659C7.75966 31.8704 6.36751 31.2291 6.36751 31.2291C4.45394 29.91 6.50689 29.91 6.50689 29.91C8.62954 30.0526 9.74335 32.1202 9.74335 32.1202C11.6221 35.3997 14.6494 34.4731 15.8674 33.9026C16.0412 32.5122 16.5983 31.5497 17.1898 31.0151C12.5268 30.5159 7.6207 28.6623 7.6207 20.3914C7.6207 18.0385 8.45531 16.1135 9.77777 14.6164C9.56911 14.0818 8.83819 11.8711 9.98685 8.91228C9.98685 8.91228 11.7615 8.34178 15.7628 11.1225C17.4759 10.6512 19.2427 10.4114 21.0174 10.4094C22.792 10.4094 24.601 10.6592 26.2715 11.1225C30.2733 8.34178 32.0479 8.91228 32.0479 8.91228C33.1966 11.8711 32.4652 14.0818 32.2566 14.6164C33.6139 16.1135 34.4141 18.0385 34.4141 20.3914C34.4141 28.6623 29.508 30.4801 24.8101 31.0151C25.5759 31.6924 26.2367 32.9755 26.2367 35.0077C26.2367 37.8952 26.2022 40.2126 26.2022 40.9253C26.2022 41.4958 26.5851 42.1735 27.6288 41.9596C35.98 39.1071 41.9999 31.0506 41.9999 21.5323C42.0343 9.62496 32.6046 0 21.0174 0Z" fill="white"/>
</svg>
