<svg width="117" height="119" viewBox="0 0 117 119" fill="none" xmlns="http://www.w3.org/2000/svg">
<g clip-path="url(#clip0_210_82)">
<path d="M24.6494 0.116211H29.8738V5.39251H34.6529V0.116211H39.8777V16.0937H34.6533V10.7432H29.8743V16.0937H24.6499V0.116211H24.6494ZM46.7477 5.41477H42.1487V0.116211H56.5738V5.41477H51.9725V16.0937H46.7482V5.41477H46.7477ZM58.863 0.116211H64.3114L67.6619 5.73034L71.0097 0.116211H76.4589V16.0937H71.2559V8.17465L67.6617 13.8553H67.5721L63.9755 8.17465V16.0937H58.863V0.116211ZM79.0595 0.116211H84.2852V10.8128H91.6325V16.0937H79.0595V0.116211ZM17.0093 23.4012L24.4825 109.083L58.018 118.598L91.6466 109.069L99.1276 23.4009L17.0093 23.4012ZM83.5392 43.7342L83.0712 49.0618L82.8657 51.424H82.8319H58.0686H58.0328H43.5256L44.4651 62.1841H58.0328H58.0686H79.1593H81.9298L81.6789 65.0064L79.2632 92.6724L79.1085 94.4466L58.0686 100.408V100.409L58.0214 100.423L36.9627 94.4471L35.5221 77.9474H40.2787H45.8422L46.5742 86.3284L58.0232 89.4891L58.0328 89.4861V89.4852L69.4993 86.3226L70.6917 72.6934H58.0686H58.0328H35.063L32.5363 43.7342L32.2902 40.9155H58.0328H58.0686H83.7853L83.5392 43.7342Z" fill="#F0F0F0"/>
</g>
<defs>
<clipPath id="clip0_210_82">
<rect width="116.137" height="118.715" fill="white"/>
</clipPath>
</defs>
</svg>
