<svg width="105" height="108" viewBox="0 0 105 108" fill="none" xmlns="http://www.w3.org/2000/svg">
<path d="M43.4935 79.0427L77.5208 59.1908L62.0621 50.0928L28.0576 70.1077L43.4935 79.0427ZM79.0855 38.4377L63.6106 29.3397V47.3528L79.0888 56.4541L79.0855 38.4377ZM80.6307 17.5018L65.159 26.5997L80.6307 35.6977L96.0992 26.5964L80.6307 17.5018ZM32.9795 63.5569L41.958 58.273V18.5891L26.4798 27.6937V67.3776L32.9795 63.5569ZM24.9313 6.75445L9.45965 15.8557L24.9313 24.957L40.3933 15.8557L24.9313 6.75445ZM7.90793 18.5924V79.9505L41.9483 99.9753V81.7827L24.1474 71.4877C24.0888 71.4444 24.0433 71.3979 23.9814 71.358C23.9359 71.3147 23.8839 71.2815 23.8383 71.2449L23.8351 71.2349C23.7863 71.1851 23.744 71.1319 23.7082 71.072L23.7049 71.0687C23.6594 71.0254 23.6236 70.9756 23.5911 70.919L23.5878 70.9157H23.5781C23.552 70.8658 23.526 70.7993 23.5 70.7328L23.4967 70.7195C23.474 70.6696 23.4479 70.6131 23.4252 70.5499L23.4219 70.5399C23.4089 70.4734 23.3959 70.3903 23.3894 70.3072V70.3005C23.3796 70.2506 23.3699 70.1908 23.3634 70.1309V70.1276V27.7004L14.3946 22.4132L7.90793 18.5924ZM79.0888 79.9472V61.9175L45.0485 81.7827V99.972L79.0888 79.9472ZM97.6444 47.3528V29.3397L82.1727 38.441V56.4541L97.6444 47.3528ZM100.689 26.1874C100.725 26.3137 100.748 26.4567 100.748 26.6064V48.2639C100.748 48.8492 100.439 49.3579 99.9769 49.6306L99.9704 49.6339L82.1825 60.1052V80.8583C82.1825 81.4402 81.8734 81.949 81.4147 82.225L81.4082 82.2283L44.271 104.075C44.1929 104.119 44.1018 104.159 44.0075 104.185L43.9977 104.188L43.9001 104.232C43.783 104.268 43.6464 104.288 43.5065 104.288C43.3666 104.288 43.23 104.268 43.0998 104.228L43.1096 104.232C43.0608 104.218 43.0218 104.202 42.9827 104.178L42.986 104.182C42.8851 104.145 42.8006 104.112 42.7192 104.072L42.7323 104.079L5.60474 82.2316C5.1363 81.9523 4.82726 81.4435 4.82726 80.8616V15.8591C4.82726 15.7128 4.85003 15.5698 4.88906 15.4368L4.88581 15.4467C4.89882 15.3969 4.9281 15.3636 4.94437 15.3137C4.97364 15.2173 5.00618 15.1375 5.04196 15.061L5.03871 15.071C5.06473 15.0178 5.09726 14.9712 5.13305 14.9313L5.26968 14.7418L5.42257 14.6287C5.48113 14.5788 5.53318 14.529 5.59173 14.4857H5.59498L24.1636 3.56218C24.3848 3.42917 24.6516 3.34937 24.9346 3.34937C25.2176 3.34937 25.4844 3.42917 25.7121 3.56551L25.7056 3.56218L44.2807 14.4857C44.3425 14.529 44.3946 14.5755 44.4466 14.6254L44.6028 14.7384C44.6548 14.7983 44.6841 14.8648 44.7394 14.928C44.7784 14.9679 44.811 15.0144 44.8403 15.0643L44.8435 15.0676C44.876 15.1342 44.9086 15.214 44.9378 15.2971L44.9411 15.3104L44.9931 15.4434C45.0289 15.5598 45.0517 15.6961 45.0517 15.8358C45.0517 15.8424 45.0517 15.8491 45.0517 15.8557V56.4507L60.5234 47.3495V26.5964C60.5234 26.5931 60.5234 26.5897 60.5234 26.5897C60.5234 26.4468 60.5429 26.3071 60.5787 26.1741L60.5754 26.1841C60.5885 26.1408 60.6177 26.1009 60.6275 26.051C60.66 25.9513 60.6926 25.8715 60.7316 25.7917L60.7251 25.805C60.7544 25.7551 60.7999 25.7218 60.8292 25.6653C60.878 25.6021 60.917 25.539 60.9658 25.4857C61.0114 25.4425 61.0602 25.4026 61.1122 25.3694L61.1155 25.366C61.174 25.3228 61.2228 25.2696 61.2846 25.233H61.2879L79.8565 14.3062C80.0777 14.1731 80.3445 14.0933 80.6275 14.0933C80.9105 14.0933 81.1773 14.1731 81.405 14.3095L81.3985 14.3062L99.9671 25.233C100.032 25.2763 100.078 25.3228 100.14 25.3627C100.188 25.4059 100.244 25.4392 100.289 25.4791C100.341 25.539 100.38 25.6055 100.429 25.6653C100.465 25.7052 100.497 25.7518 100.527 25.7983L100.53 25.8016C100.569 25.8748 100.601 25.9579 100.627 26.0444L100.631 26.0544C100.657 26.0943 100.676 26.1375 100.693 26.1841L100.689 26.1874Z" fill="#F0F0F0"/>
</svg>
