<svg width="78" height="77" viewBox="0 0 78 77" fill="none" xmlns="http://www.w3.org/2000/svg">
<path d="M38.7079 0C17.4427 0 0.207947 17.2347 0.207947 38.4999C0.207947 59.7651 17.4427 76.9999 38.7079 76.9999C59.9731 76.9999 77.2078 59.7651 77.2078 38.4999C77.2078 17.2347 59.9731 0 38.7079 0ZM27.9399 54.6068H20.4355V30.5894H27.9399V54.6068ZM23.9847 27.5816H23.9245C21.2024 27.5816 19.4429 25.7468 19.4429 23.4158C19.4429 21.0396 21.2626 19.25 24.0298 19.25C26.797 19.25 28.4964 21.0396 28.5565 23.4158C28.5716 25.7318 26.812 27.5816 23.9847 27.5816ZM57.9579 54.6068H49.4458V42.1845C49.4458 38.9361 48.1223 36.7103 45.1897 36.7103C42.9489 36.7103 41.7007 38.2142 41.1292 39.6579C40.9186 40.1693 40.9487 40.8911 40.9487 41.6281V54.6068H32.5118C32.5118 54.6068 32.6171 32.5896 32.5118 30.5894H40.9487V34.3642C41.445 32.7099 44.137 30.3638 48.4381 30.3638C53.777 30.3638 57.9579 33.8228 57.9579 41.2521V54.6068Z" fill="#F5BD2A"/>
</svg>
