<svg width="77" height="77" viewBox="0 0 77 77" fill="none" xmlns="http://www.w3.org/2000/svg">
<rect width="77" height="77" rx="10" fill="#F5BD2A"/>
<path d="M10.7207 28.0047H21.4797V28.6749H19.5396V39.8219L19.8218 39.7513L29.7694 28.6749H26.9826V28.0047H33.1558V28.6749H31.0393L24.9719 35.4477L33.438 52.0271H35.3428V52.6973H24.0195V52.0271H25.6774L19.857 40.7743L19.5396 40.8449V52.0271H21.4797V52.6973H10.7207V52.0271H12.6609V28.6749H10.7207V28.0047ZM36.0969 35.9063H44.5982V39.1516C45.3742 36.7529 47.0792 35.5536 49.7131 35.5536C52.3705 35.5536 53.9814 36.8235 54.5458 39.3633C55.3689 36.8235 57.0974 35.5536 59.7312 35.5536C63.1882 35.5536 64.9167 37.5172 64.9167 41.4445V52.0624H66.8921V52.6973H57.1209V52.0624H58.3555V40.5979C58.3555 38.8107 58.2027 37.7642 57.8969 37.4584C57.7558 37.3173 57.5677 37.2468 57.3325 37.2468C56.6505 37.2468 56.0509 37.7054 55.5335 38.6225C55.0161 39.5397 54.7574 40.7038 54.7574 42.1148V52.0624H56.0273V52.6973H46.9616V52.0624H48.1963V40.5979C48.1963 38.8107 48.0434 37.7642 47.7377 37.4584C47.5966 37.3173 47.4084 37.2468 47.1733 37.2468C46.5148 37.2468 45.9151 37.7524 45.3742 38.7636C44.8569 39.7513 44.5982 40.9389 44.5982 42.3264V52.0624H45.8681V52.6973H36.0969V52.0624H38.037V36.5413H36.0969V35.9063Z" fill="#171717"/>
</svg>
