<svg width="117" height="120" viewBox="0 0 117 120" fill="none" xmlns="http://www.w3.org/2000/svg">
<g clip-path="url(#clip0_210_95)">
<path d="M90.9724 52.5537C91.8149 53.5078 92.0147 55.1462 91.5742 57.4669C91.114 59.8841 90.228 61.6085 88.9151 62.6422C87.6011 63.6758 85.6029 64.1926 82.9195 64.1926H78.8708L81.3562 51.1224H85.9162C88.4453 51.1224 90.13 51.5998 90.9724 52.5537ZM33.97 51.1224H29.41L26.9244 64.1926H30.9729C33.6556 64.1926 35.6544 63.6758 36.9685 62.6422C38.2816 61.6085 39.1674 59.8839 39.6276 57.4669C40.0681 55.146 39.868 53.5078 39.0258 52.5537C38.1836 51.5998 36.4989 51.1224 33.97 51.1224ZM116.025 59.9734C116.025 77.1845 90.0771 91.1367 58.0698 91.1367C26.0625 91.1367 0.114685 77.1845 0.114685 59.9734C0.114685 42.7625 26.0625 28.8101 58.0698 28.8101C90.0771 28.8101 116.025 42.7625 116.025 59.9734ZM45.0366 62.1265C45.7262 60.8633 46.2168 59.4691 46.5071 57.9443C47.2108 54.2422 46.6798 51.3587 44.9139 49.2928C43.1489 47.2269 40.3398 46.1944 36.4903 46.1944H23.6919L17.7541 77.4238H24.4098L25.9881 69.1219H31.6892C34.2041 69.1219 36.2735 68.852 37.898 68.311C39.5224 67.771 40.9986 66.8658 42.3276 65.5938C43.4424 64.5458 44.345 63.3906 45.0366 62.1265ZM68.4618 69.1219L71.2248 54.5881C71.7871 51.6325 71.3652 49.4938 69.9609 48.1738C68.5555 46.8549 66.003 46.1944 62.3013 46.1944H56.4189L57.9979 37.8913H51.3949L45.456 69.1216H52.059L55.4606 51.2298H60.7382C62.4277 51.2298 63.5321 51.5154 64.0509 52.0872C64.5696 52.6592 64.6799 53.7314 64.3809 55.3029L61.754 69.1216H68.4618V69.1219ZM96.8603 49.293C95.0955 47.2271 92.2865 46.1946 88.4369 46.1946H75.6383L69.7003 77.424H76.3562L77.9342 69.1221H83.6356C86.1502 69.1221 88.2198 68.8522 89.8442 68.3113C91.4685 67.7712 92.9447 66.866 94.2737 65.594C95.3897 64.5458 96.2916 63.3908 96.9827 62.1267C97.6732 60.8635 98.1627 59.4693 98.4533 57.9446C99.1571 54.2422 98.6261 51.3587 96.8603 49.293Z" fill="#F0F0F0"/>
</g>
<defs>
<clipPath id="clip0_210_95">
<rect width="116.137" height="118.715" fill="white" transform="translate(0 0.616211)"/>
</clipPath>
</defs>
</svg>
