<svg width="117" height="119" viewBox="0 0 117 119" fill="none" xmlns="http://www.w3.org/2000/svg">
<path d="M52.8088 36.3154C54.8049 36.2227 56.8446 36.1559 58.9096 36.1559C60.9965 36.1559 63.0579 36.2004 65.0794 36.3154C63.0579 33.6443 61.0618 31.2812 58.9495 29.0293L58.9786 29.059C56.8772 31.2849 54.8593 33.6518 52.9576 36.1151L52.8088 36.3154ZM32.1292 39.2833C36.0597 38.2631 40.8539 37.395 45.7462 36.8608L46.2217 36.82C49.2158 32.6167 52.2426 28.918 55.4908 25.4382L55.4509 25.4827C50.6929 20.0552 44.2727 16.2415 37.0105 14.8726L36.8109 14.8429C36.7964 14.8429 36.7819 14.8429 36.7674 14.8429C35.8673 14.8429 35.0181 15.0692 34.2741 15.4699L34.3031 15.455C31.2835 17.2172 29.9734 23.958 30.9932 32.6204C31.2363 34.7536 31.6356 36.998 32.1255 39.287L32.1292 39.2833ZM85.7808 39.3315C86.2091 37.5731 86.6119 35.3323 86.8987 33.0545L86.9313 32.7354C87.9729 24.0767 86.6882 17.3433 83.694 15.5441C83.0262 15.1657 82.2278 14.9431 81.3785 14.9431C81.295 14.9431 81.2116 14.9468 81.1281 14.9505H81.139C73.6881 16.3417 67.2715 20.1294 62.5244 25.4901L62.499 25.5198C65.6891 28.944 68.6942 32.6353 71.4488 36.5195L71.6593 36.8311C77.0161 37.4024 81.8177 38.2854 86.4958 39.4911L85.7808 39.3352V39.3315ZM36.3718 53.1766C37.2791 51.3588 38.23 49.5484 39.2752 47.7306C40.318 45.9227 41.3838 44.1568 42.4726 42.4329C39.3224 42.9041 36.2811 43.4977 33.374 44.2211C34.1906 47.1407 35.214 50.1642 36.3682 53.184L36.3718 53.1766ZM81.4765 53.2694C82.6778 50.2236 83.6976 47.1852 84.5432 44.2396C81.6398 43.5125 78.5731 42.8967 75.4011 42.4329C76.4899 44.1729 77.5787 45.9647 78.5985 47.8011C79.6183 49.6078 80.5728 51.4553 81.4838 53.2731L81.4765 53.2694ZM28.5144 73.1133C30.0968 67.6301 31.7953 63.0448 33.7732 58.6227L33.501 59.2979C31.8098 55.5695 30.1367 51.0101 28.7648 46.3172L28.5761 45.5566C26.0138 46.3617 23.9524 47.1519 21.9454 48.0385L22.3628 47.8753C14.509 51.292 9.42799 55.7846 9.42799 59.3461C9.42799 62.9075 14.509 67.4224 22.3628 70.8243C24.2681 71.659 26.3586 72.4121 28.5144 73.1133ZM89.2649 73.1318C91.4607 72.4381 93.5475 71.6627 95.5001 70.8243C103.354 67.3927 108.435 62.9075 108.435 59.3461C108.413 55.7846 103.332 51.2809 95.4783 47.8716C93.5729 47.0368 91.4861 46.2875 89.3339 45.5863C87.737 51.088 86.0385 55.6696 84.0678 60.0992L84.3436 59.4017C86.0276 63.1264 87.7044 67.6858 89.0726 72.3787L89.2649 73.143V73.1318ZM75.3721 76.2592C78.5259 75.7806 81.5636 75.1945 84.4707 74.4637C83.6541 71.5329 82.6342 68.5205 81.4765 65.5007C80.5692 67.3074 79.6183 69.1289 78.5731 70.943C77.5533 72.7608 76.4645 74.5304 75.3757 76.2555L75.3721 76.2592ZM42.4472 76.2592C41.3584 74.5119 40.2696 72.7237 39.2534 70.88C38.2336 69.0733 37.2791 67.2554 36.3718 65.4376C35.1705 68.4797 34.1507 71.5106 33.305 74.4637C36.2085 75.1574 39.2679 75.7769 42.4436 76.2518L42.4472 76.2592ZM58.9314 77.4389C62.2885 77.4389 65.6311 77.2831 68.9192 77.0086C70.7605 74.3103 72.5485 71.4364 74.2833 68.3869C75.9697 65.4191 77.5085 62.4116 78.8997 59.3646C77.5024 56.3263 75.9709 53.2916 74.305 50.3238C72.5811 47.2632 70.7992 44.3509 68.9519 41.6539C65.6492 41.3608 62.303 41.2013 58.9278 41.2013C55.5707 41.2013 52.2281 41.3645 48.94 41.6316C47.0999 44.3287 45.3034 47.2149 43.5759 50.2533C41.8895 53.2211 40.3507 56.2286 38.9595 59.2756C40.335 62.3214 41.8883 65.3634 43.5541 68.335C45.278 71.3956 47.06 74.2967 48.9073 76.9938C52.21 77.2906 55.5562 77.4464 58.9314 77.4464V77.4389ZM58.8624 89.6109C60.9674 87.385 62.9853 85.0218 64.8834 82.5585L65.0286 82.3619C63.0325 82.4546 60.9928 82.5177 58.9278 82.5177C56.8409 82.5177 54.7795 82.4732 52.758 82.3619C54.7759 85.033 56.772 87.3961 58.8879 89.648L58.8588 89.6183L58.8624 89.6109ZM36.7202 103.753C44.1711 102.358 50.5841 98.5702 55.3348 93.2132L55.3602 93.1835C52.17 89.7556 49.165 86.0643 46.4104 82.1727L46.1999 81.8611C40.8467 81.2935 36.0451 80.4179 31.3706 79.2122L32.082 79.3681C31.5739 81.6385 31.1964 83.8384 30.9315 85.9493C29.8899 94.6081 31.1747 101.341 34.1688 103.133C34.9164 103.493 35.7911 103.716 36.7129 103.745H36.7238L36.7202 103.753ZM81.0337 103.846V103.816C81.0809 103.816 81.1354 103.82 81.1934 103.82C82.0608 103.82 82.8774 103.601 83.596 103.215L83.567 103.23C86.5865 101.46 87.8967 94.7231 86.8769 86.0569C86.6337 83.9237 86.2345 81.6756 85.7445 79.3829C81.8068 80.4142 77.0125 81.286 72.1202 81.8165L71.6557 81.8574C68.6579 86.0643 65.6311 89.763 62.3829 93.2466L62.4264 93.202C67.1844 98.6184 73.5937 102.432 80.8414 103.808L81.0446 103.842L81.0337 103.846ZM81.0555 108.898C72.1928 107.522 64.5205 103.122 58.9169 96.7746L58.8879 96.7412C53.2443 103.085 45.572 107.455 36.9271 108.78L36.7238 108.806C36.6766 108.806 36.6186 108.806 36.5605 108.806C34.7785 108.806 33.1054 108.327 31.6573 107.489L31.7082 107.515C25.473 103.838 24.0758 92.3822 27.2949 78.0066C13.4892 73.6475 4.51031 66.6804 4.51031 59.3387C4.51031 51.9672 13.5363 44.9816 27.3821 40.6559C24.1883 26.2247 25.6146 14.7502 31.8642 11.0774C33.2361 10.2724 34.8838 9.80124 36.6367 9.80124C36.7166 9.80124 36.7964 9.80124 36.8726 9.80495H36.8617C45.7244 11.1813 53.3967 15.5849 59.0004 21.9361L59.0294 21.9695C64.6729 15.622 72.3452 11.2518 80.9902 9.92738L81.1934 9.90141C81.2479 9.90141 81.3168 9.90141 81.3821 9.90141C83.1532 9.90141 84.8191 10.3763 86.2599 11.2036L86.2091 11.1776C92.4406 14.8503 93.8415 26.3063 90.6223 40.6856C104.377 45.0076 113.356 51.9895 113.356 59.3424C113.356 66.7138 104.33 73.6994 90.4844 78.0362C93.6782 92.4526 92.2518 103.938 86.0022 107.615C84.6158 108.427 82.9536 108.906 81.1825 108.906C81.1354 108.906 81.0882 108.906 81.041 108.906H81.0482L81.0555 108.898ZM69.0462 59.3387C69.0462 53.6144 64.506 48.9734 58.906 48.9734C53.306 48.9734 48.7658 53.6144 48.7658 59.3387C48.7658 65.0629 53.306 69.7039 58.906 69.7039C61.7078 69.7039 64.241 68.5428 66.0775 66.6693C67.9139 64.7921 69.0462 62.2027 69.0462 59.3387Z" fill="#F0F0F0"/>
</svg>
