<?xml version="1.0" encoding="UTF-8" standalone="no"?>
<!DOCTYPE svg PUBLIC "-//W3C//DTD SVG 1.1//EN" "http://www.w3.org/Graphics/SVG/1.1/DTD/svg11.dtd">
<svg xmlns="http://www.w3.org/2000/svg" version="1.1" viewBox="0 0 512 512">
<path fill="#000000" d="
  M 288.31 0.00
  L 292.81 0.00
  Q 316.24 1.48 331.06 17.69
  Q 345.95 33.96 345.98 56.25
  Q 346.00 76.13 345.99 96.00
  Q 345.98 118.01 331.50 134.00
  Q 321.62 144.90 307.24 149.34
  Q 288.37 155.15 271.06 148.53
  Q 261.74 144.97 254.03 138.24
  Q 240.80 126.69 236.72 109.32
  Q 235.32 103.36 235.28 92.42
  Q 235.23 77.96 235.24 63.51
  Q 235.25 49.46 236.49 43.59
  Q 239.56 29.15 249.81 18.06
  Q 265.15 1.48 288.31 0.00
  Z
  M 268.84 48.73
  Q 267.57 52.91 267.50 60.25
  Q 267.35 77.12 267.64 93.98
  Q 267.77 101.43 269.26 105.29
  Q 272.56 113.80 281.06 117.69
  Q 292.34 122.85 303.31 115.81
  Q 309.77 111.67 312.17 104.69
  Q 313.50 100.83 313.50 91.15
  Q 313.50 75.85 313.50 60.54
  Q 313.50 51.23 312.02 47.13
  Q 309.08 38.94 301.00 35.00
  Q 290.72 29.99 281.06 34.56
  Q 271.82 38.94 268.84 48.73
  Z"
/>
<path fill="#000000" d="
  M 37.51 59.53
  Q 38.89 60.20 40.90 60.10
  Q 43.02 60.00 43.11 60.00
  Q 62.56 60.01 82.00 60.18
  Q 98.59 60.33 109.07 72.91
  Q 117.55 83.09 117.37 96.50
  Q 117.25 105.37 117.47 114.24
  Q 117.80 127.96 109.17 138.42
  Q 99.25 150.46 83.50 151.25
  Q 66.36 152.11 21.57 151.33
  Q 16.07 151.23 13.16 149.91
  Q 8.92 147.99 6.40 144.18
  Q 3.21 139.38 3.64 133.71
  Q 4.09 127.77 8.81 123.31
  Q 13.60 118.79 20.50 118.83
  Q 50.63 119.00 80.75 119.00
  Q 84.95 119.00 84.85 115.30
  Q 84.80 113.29 84.80 113.21
  Q 85.26 103.89 84.78 95.13
  Q 84.64 92.50 82.01 92.50
  Q 61.38 92.50 40.75 92.53
  Q 35.20 92.54 29.94 91.15
  Q 24.68 89.76 20.06 86.86
  Q 9.62 80.30 5.64 68.84
  Q 3.70 63.26 3.51 52.93
  Q 3.39 46.12 3.54 39.30
  Q 3.72 30.66 5.19 25.85
  Q 9.11 12.97 21.06 5.81
  Q 28.60 1.30 38.25 1.23
  Q 67.13 1.02 96.01 1.00
  Q 104.32 1.00 107.78 2.50
  Q 112.58 4.59 115.17 9.26
  Q 117.50 13.44 117.07 18.59
  Q 116.28 28.14 107.53 31.92
  Q 104.46 33.24 99.25 33.31
  Q 70.29 33.67 41.33 33.50
  Q 41.25 33.50 39.67 33.38
  Q 37.61 33.21 36.62 34.64
  Q 36.00 35.52 36.00 37.51
  Q 36.00 46.83 36.00 57.10
  Q 36.00 58.79 37.51 59.53
  Z"
/>
<path fill="#000000" d="
  M 226.35 124.64
  Q 230.87 128.63 231.72 134.07
  Q 232.52 139.19 230.08 144.16
  Q 227.36 149.68 221.57 151.82
  Q 218.36 153.00 210.78 153.00
  Q 182.25 153.00 153.71 153.00
  Q 146.39 153.00 142.99 151.57
  Q 137.13 149.10 134.62 143.18
  Q 133.25 139.95 133.25 133.62
  Q 133.25 77.29 133.25 20.96
  Q 133.25 14.05 134.65 10.73
  Q 137.13 4.87 143.01 2.40
  Q 146.33 1.00 153.21 1.00
  Q 179.73 1.00 206.26 1.00
  Q 217.77 1.00 219.70 1.46
  Q 227.12 3.21 230.69 10.81
  Q 232.45 14.57 231.88 18.84
  Q 231.37 22.74 229.09 26.18
  Q 224.29 33.42 214.50 33.46
  Q 190.34 33.54 166.19 33.44
  A 0.52 0.50 0.0 0 0 165.67 33.94
  L 165.72 59.14
  A 0.84 0.81 -1.0 0 0 166.58 59.94
  Q 182.31 59.47 198.06 59.94
  Q 203.83 60.11 207.93 62.63
  Q 212.05 65.15 214.11 70.10
  Q 216.59 76.06 214.17 81.96
  Q 211.94 87.39 207.13 90.03
  Q 202.41 92.62 196.00 92.25
  Q 190.23 91.91 166.19 92.43
  A 0.52 0.51 -0.6 0 0 165.68 92.94
  L 165.56 119.95
  A 0.63 0.62 -0.0 0 0 166.19 120.57
  Q 191.16 120.45 215.50 120.55
  Q 221.74 120.57 226.35 124.64
  Z"
/>
<path fill="#000000" d="
  M 508.44 512.00
  L 422.19 512.00
  L 422.06 128.24
  A 0.43 0.43 0.0 0 1 422.49 127.81
  L 507.77 127.75
  A 0.73 0.73 0.1 0 1 508.50 128.48
  L 508.44 512.00
  Z"
/>
<path fill="#000000" d="
  M 229.40 512.00
  L 143.19 512.00
  L 143.00 207.36
  A 0.86 0.86 0.0 0 1 143.86 206.50
  L 228.94 206.50
  A 0.56 0.56 0.0 0 1 229.50 207.06
  L 229.40 512.00
  Z"
/>
<path fill="#000000" d="
  M 368.89 512.00
  L 282.69 512.00
  L 282.56 258.43
  A 0.93 0.93 0.0 0 1 283.49 257.50
  L 368.01 257.50
  A 0.99 0.99 0.0 0 1 369.00 258.49
  L 368.89 512.00
  Z"
/>
<path fill="#000000" d="
  M 89.86 512.00
  L 3.69 512.00
  L 3.56 344.20
  A 0.71 0.70 0.0 0 1 4.27 343.50
  L 89.31 343.50
  A 0.69 0.69 0.0 0 1 90.00 344.19
  L 89.86 512.00
  Z"
/>
</svg>
